<svg version="1.2" xmlns="http://www.w3.org/2000/svg" viewBox="0 0 162 39" width="162" height="35">
	<title>logo hibi lab</title>
	<style>
		.s0 { fill: white } 
	</style>
	<g id="&lt;Group&gt;">
		<path id="&lt;Compound Path&gt;" fill-rule="evenodd" class="s0" d="m47.1 15.2c0-4.5 3.7-8.1 8.2-8.1 4.5 0 8.1 3.6 8.1 8.1v7.6c0 4.5-3.6 8.2-8.1 8.2-4.5 0-8.2-3.7-8.2-8.2zm7.8-7c-3.7 0-6.7 3-6.7 6.7v3.1c0 0.2 0.1 0.3 0.3 0.3h13.5c0.2 0 0.3-0.1 0.3-0.3v-3.1c0-3.7-3-6.7-6.7-6.7zm0.8 21.7c3.7 0 6.7-3 6.7-6.7v-3.5c0-0.2-0.1-0.3-0.3-0.3h-13.6c-0.1 0-0.3 0.1-0.3 0.3v3.5c0 3.7 3.1 6.7 6.7 6.7zm32.8-21.9h7.4c0.3 0 0.5 0.2 0.5 0.5 0 0.2-0.2 0.5-0.5 0.5h-3.5c-0.2 0-0.3 0.1-0.3 0.3-0.1 1-0.3 3.5-0.9 6.7 0 0.1 0.1 0.3 0.2 0.3h2.7c1 0 1.7 0.7 1.7 1.6v10.5c0 1-0.7 1.7-1.7 1.7h-2.4c-1 0-1.7-0.7-1.7-1.7v-6.9q-0.1-0.5-0.2 0c-0.7 2.1-1.5 4.2-2.6 6.1-0.1 0.2-0.4 0.3-0.6 0.2-0.3-0.1-0.4-0.4-0.2-0.7 3.7-6.9 4.6-15.6 4.7-17.8 0-0.2-0.1-0.3-0.3-0.3h-2.3c-0.3 0-0.5-0.3-0.5-0.5 0-0.3 0.2-0.5 0.5-0.5zm6.4 9.9c0-0.3-0.4-0.7-0.8-0.7h-2.9c-0.1 0-0.3 0.2-0.3 0.3v10.9c0 0.4 0.4 0.7 0.8 0.7h2.4c0.4 0 0.8-0.3 0.8-0.7zm12.1-0.8h2c0.2 0 0.4 0.2 0.4 0.5 0 0.2-0.2 0.4-0.4 0.4h-2c-0.2 0-0.3 0.2-0.3 0.3v11.7c0 0.3-0.2 0.5-0.5 0.5-0.3 0-0.5-0.2-0.5-0.5v-11.7c0-0.1-0.1-0.3-0.3-0.3h-3.5c-0.2 0-0.3 0.2-0.3 0.3-0.5 8.2-3.8 11.5-3.9 11.7-0.2 0.2-0.5 0.1-0.7 0-0.2-0.2-0.2-0.6 0-0.7 0 0 0.9-1 1.8-3 0.7-1.6 1.6-4.2 1.8-8 0-0.1-0.1-0.3-0.3-0.3h-2.6c-0.2 0-0.5-0.2-0.5-0.4 0-0.3 0.3-0.5 0.5-0.5h2.6c0.2 0 0.3-0.2 0.3-0.3q0-0.2 0-0.3v-7.3c0-0.1-0.1-0.3-0.3-0.3h-1.7c-0.3 0-0.5-0.2-0.5-0.5 0-0.2 0.2-0.4 0.5-0.4h9.5c0.3 0 0.5 0.2 0.5 0.4 0 0.3-0.2 0.5-0.5 0.5h-1.1c-0.2 0-0.3 0.2-0.3 0.3v7.6c0 0.1 0.1 0.3 0.3 0.3zm-5.1 0h3.5c0.2 0 0.3-0.2 0.3-0.3v-7.6c0-0.1-0.1-0.3-0.3-0.3h-3.5c-0.1 0-0.3 0.2-0.3 0.3v7.3q0 0.1 0 0.3c0 0.1 0.1 0.3 0.3 0.3zm-23.5 6.7c-0.1 0.2-0.1 0.4 0 0.5l2.2 1.7c0.2 0.2 0.2 0.5 0.1 0.7-0.2 0.3-0.6 0.3-0.8 0.1l-5.7-4.6c-0.3-0.2-0.3-0.5-0.1-0.7 0.1-0.2 0.5-0.3 0.7-0.1l2.3 1.8c0.1 0.1 0.3 0.1 0.4 0l4.1-6c0.5-0.6 0.6-1.2 0.4-1.6-0.2-0.3-0.7-0.6-1.5-0.6h-5.6c-0.2 0-0.4 0.2-0.5 0.3-1.3 2.5-3.3 5.4-6.1 7.6-0.3 0.1-0.6 0.1-0.8-0.1-0.2-0.3-0.1-0.6 0.1-0.8 5.5-4.1 7.9-11.6 7.9-11.7 0.1-0.3 0.4-0.4 0.6-0.3 0.3 0 0.5 0.3 0.4 0.6 0 0.2-0.4 1.4-1.2 3.1-0.1 0.2 0 0.3 0.1 0.3h5.1c1.2 0 2.1 0.4 2.4 1.1 0.4 0.8 0.3 1.7-0.4 2.7zm35.2-15.1h8.5c0.2 0 0.3-0.1 0.3-0.3v-2.5c0-0.3 0.2-0.5 0.5-0.5 0.3 0 0.5 0.2 0.5 0.5v2.5c0 0.2 0.1 0.3 0.3 0.3h8.5c0.3 0 0.5 0.2 0.5 0.5v3.4c0 0.3-0.2 0.5-0.5 0.5-0.2 0-0.5-0.2-0.5-0.5v-2.6c0-0.2-0.1-0.3-0.3-0.3h-5.4c-0.1 0-0.3 0.1-0.3 0.3v6.8c0 0.1 0.1 0.2 0.2 0.2h5.5c0.3 0 0.5 0.2 0.5 0.5 0 0.3-0.2 0.5-0.5 0.5h-6.2c-0.2 0-0.5-0.2-0.5-0.5v-7.5c0-0.2-0.1-0.3-0.3-0.3h-3.3c-0.2 0-0.3 0.1-0.3 0.3v1.7c0 6.8-6.3 6.9-6.3 6.9-0.3 0-0.5-0.2-0.5-0.5 0-0.3 0.2-0.5 0.5-0.5 0.2 0 5.3-0.1 5.3-5.9v-1.7c0-0.2-0.1-0.3-0.3-0.3h-5.1c-0.2 0-0.3 0.1-0.3 0.3v2.6c0 0.3-0.2 0.5-0.5 0.5-0.3 0-0.5-0.2-0.5-0.5v-3.4c0-0.3 0.2-0.5 0.5-0.5zm14 20.1h5.3c0.3 0 0.5 0.2 0.5 0.5 0 0.3-0.2 0.5-0.5 0.5h-5.3c-0.8 0-1.5-0.3-1.9-0.9-0.4-0.5-0.5-1.3-0.3-2l1-3.3c0.2-0.4 0.1-0.8-0.1-1.2-0.2-0.3-0.6-0.4-1.1-0.4h-3.4c-0.2 0-0.4 0.1-0.4 0.3-1.6 5.9-7.6 7.7-7.7 7.7-0.2 0.1-0.5-0.1-0.6-0.3-0.1-0.3 0.1-0.5 0.3-0.6 0.3-0.1 5.4-1.7 7-6.8 0-0.2-0.1-0.3-0.3-0.3h-5.2c-0.2 0-0.5-0.3-0.5-0.5 0-0.3 0.3-0.5 0.5-0.5h5.5c0.1 0 0.3-0.1 0.3-0.3q0.1-0.7 0.1-1.5v-2c0-0.3 0.2-0.5 0.5-0.5 0.3 0 0.5 0.2 0.5 0.5v2q0 0.8-0.1 1.5c0 0.2 0.1 0.3 0.2 0.3h3.3c0.8 0 1.5 0.3 1.9 0.9 0.4 0.5 0.5 1.3 0.3 2l-1 3.3c-0.2 0.4-0.1 0.8 0.1 1.2 0.2 0.3 0.6 0.4 1.1 0.4zm16.7-8.1h-5c-0.1 0-0.3 0.1-0.3 0.3-0.5 5.9-1.7 8.6-1.7 8.8-0.1 0.2-0.4 0.3-0.7 0.2-0.2-0.1-0.3-0.4-0.2-0.6 0-0.1 1.8-4.4 1.8-13.6v-2.7c0-0.3 0.2-0.5 0.5-0.5h5.6c0.9 0 1.7 0.7 1.7 1.7v4.7c0 0.9-0.8 1.7-1.7 1.7zm0.7-6.4c0-0.4-0.3-0.8-0.7-0.8h-4.8c-0.2 0-0.3 0.2-0.3 0.3v2q0 1.9-0.1 3.6c0 0.2 0.1 0.3 0.3 0.3h4.9c0.4 0 0.7-0.3 0.7-0.7zm-7.6-5.9c0-0.2 0.2-0.4 0.5-0.4h8.4c0.3 0 0.5 0.2 0.5 0.4 0 0.3-0.2 0.5-0.5 0.5h-8.4c-0.3 0-0.5-0.2-0.5-0.5zm20.2 8.5h-2c-0.2 0-0.3 0.2-0.3 0.3v12.8c0 0.3-0.2 0.5-0.5 0.5-0.3 0-0.5-0.2-0.5-0.5v-12.8c0-0.1-0.1-0.3-0.3-0.3h-3.7c-0.1 0-0.3 0.2-0.3 0.3-0.2 9-3.7 12.6-3.9 12.8-0.2 0.1-0.5 0.1-0.7-0.1-0.2-0.2-0.2-0.5 0-0.6 0.1-0.1 3.7-3.7 3.7-12.9v-4.7c0-1.6 1.2-3 2.8-3.2l4.8-0.5c0.3-0.1 0.5 0.1 0.5 0.4 0.1 0.3-0.1 0.5-0.4 0.5l-4.8 0.6c-1 0.1-1.9 1.1-1.9 2.2v4c0 0.1 0.1 0.3 0.3 0.3h7.2c0.3 0 0.5 0.2 0.5 0.4 0 0.3-0.2 0.5-0.5 0.5z"/>
		<path id="&lt;Compound Path&gt;" fill-rule="evenodd" class="s0" d="m4.3 18.6c0-9.3 7.6-16.9 16.9-16.9 9.3 0 16.9 7.6 16.9 16.9 0 6.8-4.1 13-10.5 15.6q-0.3 0.1-0.5 0-0.2-0.2-0.2-0.4v-1.2c0-1.6-0.8-3.4-1.7-4.1l-3.1-2.2c-0.5-0.3-0.9-1-1-1.5l-0.4-1.6c0-0.2 0.1-0.5 0.4-0.5 0.2-0.1 0.5 0.1 0.5 0.3l0.4 1.6c0.1 0.2 0.3 0.6 0.5 0.8 0.1 0.1 0.3 0.1 0.3-0.1l0.6-1.9c0.1-0.2 0-0.5-0.2-0.7l-2.1-1.7c-0.2-0.2-0.7-0.4-0.9-0.5l-1.2-0.2q-0.2 0.1-0.3 0.2-0.2 0.2-0.1 0.6l0.9 3.8c0.1 0.2-0.1 0.4-0.3 0.5-0.2 0-0.4-0.1-0.5-0.3l-0.9-3.8q-0.1-0.6 0.1-1 0-0.1-0.1-0.2l-1-0.2c-0.1 0-0.3 0-0.4 0.1q0 0-0.1 0.1-0.2 0.2-0.1 0.6l0.9 3.7c0.1 0.3-0.1 0.5-0.3 0.5-0.2 0.1-0.4-0.1-0.5-0.3l-0.9-3.8q-0.1-0.5 0.1-0.9 0-0.1-0.1-0.2l-1.1-0.2c0 0-0.2 0-0.3 0q0 0.1-0.1 0.1-0.2 0.2-0.1 0.6l0.9 3.8c0 0.2-0.1 0.5-0.3 0.5-0.2 0.1-0.4-0.1-0.5-0.3l-0.9-3.8q-0.1-0.5 0.1-0.9 0-0.2-0.1-0.2l-0.9-0.2q-0.4 0-0.5 0.2-0.2 0.1-0.1 0.5l1.5 6.7c0.2 0.7 0.9 1.6 1.5 1.9l8 4.3c0.6 0.3 1.1 1.1 1.1 1.8v0.4c0 0.2-0.2 0.4-0.4 0.4q-1 0.2-2 0.2c-9.3 0-16.9-7.6-16.9-16.9zm14 0.7c0.2 0 0.4-0.1 0.4-0.2l1.2-2.5c0-0.1 0-0.2-0.1-0.3l-2.7-1.8c-0.6-0.4-1-1-0.9-1.7 0-0.7 0.5-1.5 1.5-2 0 0 5-2.9 7.9-7.3 0.1-0.1 0-0.3-0.1-0.3q-2.1-0.6-4.3-0.6c-8.8 0-15.9 7.2-15.9 16 0 8.8 7.1 15.9 15.9 15.9q0.6 0 1.2 0c0.2 0 0.3-0.2 0.2-0.3-0.1-0.3-0.3-0.6-0.5-0.7l-8-4.3c-0.9-0.4-1.8-1.6-2-2.5l-1.5-6.7c-0.2-0.5 0-1 0.3-1.4 0.3-0.3 0.8-0.5 1.4-0.4zm6 4.5l-0.7 2.1c-0.1 0.2 0 0.4 0.1 0.5l2 1.4c1.1 0.8 2.1 2.8 2.1 5 0 0.2 0.2 0.2 0.3 0.2 5.5-2.7 9-8.2 9-14.4 0-6.8-4.2-12.5-10.2-14.9-0.1 0-0.3 0-0.4 0.2-0.7 1.1-1.5 2-2.3 2.9q-0.1 0.1 0 0.2 0.2 0.1 0.3 0.2 0.1 0.1 0.2 0.2 0.1 0.2 0.2 0c1-1.3 2.1-1.6 3-1.3 0.7 0.3 1.2 1.2 1.1 2.4 0 0.1 0 0.2 0.1 0.2l0.5 0.3c0.2 0.1 0.3 0.3 0.2 0.6-0.1 0.2-0.3 0.3-0.6 0.2l-0.3-0.2c-0.1 0-0.2 0-0.2 0.1q-0.1 0.4-0.3 0.8c-1.1 2.4-2.6 3-3.7 2.6-1-0.5-1.5-2-0.6-4.2 0.1-0.1 0.1-0.3 0.1-0.4 0-0.1-0.1-0.4-0.2-0.5-0.1-0.2-0.3-0.3-0.5-0.3-0.1 0-0.2 0-0.3 0.1-2.5 2.4-5 3.8-5.1 3.9-0.6 0.3-1 0.8-1 1.2-0.1 0.4 0.2 0.7 0.5 0.8l2.7 1.9c0.5 0.3 0.7 0.9 0.4 1.4l-1 2.3c-0.1 0.1 0 0.3 0.1 0.3l0.5 0.1c0.4 0 1 0.3 1.3 0.6l2.2 1.7c0.5 0.4 0.7 1.2 0.5 1.8zm-0.3-5.8c0 0.3-0.2 0.5-0.4 0.5h-1.4c-0.3 0-0.5-0.2-0.5-0.5 0-0.2 0.2-0.4 0.5-0.4h1.4c0.2 0 0.4 0.2 0.4 0.4zm1.1-5.8c0.6 0.3 1.7-0.3 2.5-2 0.8-1.8 0.5-3-0.1-3.3-0.6-0.2-1.7 0.4-2.5 2.1-0.7 1.8-0.5 3 0.1 3.2z"/>
	</g>
</svg>