<svg version="1.2" xmlns="http://www.w3.org/2000/svg" viewBox="0 0 192 148" width="192" height="148">
	<title>システム用logo Hibi-Lab [更新済み]-ai</title>
	<style>
		tspan { white-space:pre } 
		.s0 { fill: #dd9ebf } 
		.s1 { fill: #231f20 } 
		.s2 { fill: #2dafb4;stroke: #fefefe;stroke-miterlimit:10;stroke-width: .4 } 
		.t3 { font-size: 14px;fill: #fffdfd;font-weight: bold;font-family: "Porter" } 
		.s4 { fill: none;stroke: #fefefe;stroke-miterlimit:10;stroke-width: .5 } 
		.s5 { fill: #fefefe } 
		.s6 { fill: #fefefe;stroke: #fefefe;stroke-miterlimit:10;stroke-width: .4 } 
	</style>
	<g id="レイヤー 1">
		<path id="&lt;Path&gt;" class="s0" d="m700.3 281h-842.7v-39.2h842.7z"/>
		<g id="&lt;Group&gt;">
			<path id="&lt;Compound Path&gt;" fill-rule="evenodd" class="s1" d="m62.2-120v14.3c0 7.3-5.9 13.2-13.3 13.2h-1.2c-7.3 0-13.3-5.9-13.3-13.2v-14.3c0-7.3 6-13.3 13.3-13.3h1.2c7.4 0 13.3 6 13.3 13.3zm-14.5-11.4c-6.3 0-11.5 5.1-11.5 11.4v5.4c0 0.2 0.3 0.5 0.5 0.5h23.2c0.3 0 0.5-0.3 0.5-0.5v-5.4c0-6.3-5.1-11.4-11.5-11.4zm1.3 37.1c6.3 0 11.5-5.1 11.5-11.4v-6.1c0-0.3-0.3-0.5-0.6-0.5h-23.1c-0.3 0-0.5 0.2-0.5 0.5v6.1c0 6.3 5.1 11.4 11.4 11.4zm56-37.4h12.7c0.4 0 0.8 0.3 0.8 0.8 0 0.5-0.4 0.8-0.8 0.8h-6.1c-0.2 0-0.5 0.3-0.5 0.6-0.1 1.7-0.5 6-1.5 11.4-0.1 0.3 0.1 0.5 0.4 0.5h4.6c1.6 0 2.9 1.3 2.9 2.9v17.9c0 1.6-1.3 2.9-2.9 2.9h-4.2c-1.6 0-2.9-1.3-2.9-2.9v-11.8c0-0.5-0.2-0.6-0.3 0-1.2 3.5-2.6 7-4.4 10.4-0.2 0.4-0.7 0.5-1.1 0.3-0.4-0.2-0.6-0.7-0.3-1.1 6.4-11.9 7.8-26.8 8-30.5 0-0.3-0.2-0.6-0.5-0.6h-3.9c-0.5 0-0.8-0.3-0.8-0.8 0-0.5 0.3-0.8 0.8-0.8zm10.8 17c0-0.7-0.5-1.2-1.2-1.2h-4.9c-0.3 0-0.6 0.2-0.6 0.5v18.6c0 0.7 0.6 1.2 1.3 1.2h4.2c0.7 0 1.2-0.5 1.2-1.2zm20.7-1.5h3.4c0.5 0 0.9 0.4 0.9 0.9 0 0.4-0.4 0.8-0.9 0.8h-3.4c-0.2 0-0.5 0.2-0.5 0.5v19.9c0 0.5-0.3 0.8-0.8 0.8-0.5 0-0.8-0.3-0.8-0.8v-19.9c0-0.3-0.3-0.5-0.6-0.5h-6c-0.3 0-0.5 0.2-0.5 0.5-0.8 14-6.4 19.6-6.6 19.8-0.4 0.4-0.9 0.4-1.2 0-0.3-0.3-0.3-0.8 0-1.2 0 0 1.6-1.5 3.1-5 1.2-2.7 2.6-7.2 3-13.6 0-0.3-0.2-0.5-0.5-0.5h-4.4c-0.4 0-0.8-0.4-0.8-0.8 0-0.5 0.4-0.9 0.8-0.9h4.5c0.3 0 0.5-0.2 0.5-0.5q0-0.3 0-0.5v-12.3c0-0.3-0.2-0.6-0.5-0.6h-3c-0.5 0-0.8-0.3-0.8-0.8 0-0.5 0.3-0.8 0.8-0.8h16.3c0.4 0 0.8 0.3 0.8 0.8 0 0.5-0.4 0.8-0.8 0.8h-2c-0.2 0-0.5 0.3-0.5 0.6v12.8c0 0.3 0.3 0.5 0.5 0.5zm-8.6 0h5.9c0.3 0 0.6-0.2 0.6-0.5v-12.8c0-0.3-0.3-0.6-0.6-0.6h-5.9c-0.3 0-0.5 0.3-0.5 0.6v12.3q0 0.2 0 0.5c0 0.3 0.2 0.5 0.5 0.5zm-40.2 11.6c-0.2 0.2-0.2 0.5 0.1 0.7l3.6 3c0.4 0.3 0.5 0.8 0.2 1.2-0.3 0.4-0.9 0.5-1.3 0.2l-9.8-7.9c-0.4-0.3-0.5-0.8-0.2-1.2 0.3-0.4 0.9-0.5 1.3-0.2l3.9 3.1c0.3 0.2 0.6 0.2 0.7-0.1l7.1-10.2c0.7-1 0.9-2 0.6-2.6-0.3-0.7-1.3-1-2.5-1h-9.7c-0.3 0-0.6 0.2-0.7 0.4-2.3 4.2-5.7 9.2-10.6 12.9-0.4 0.3-1 0.2-1.3-0.2-0.3-0.4-0.2-0.9 0.2-1.2 9.3-7.1 13.4-19.9 13.4-20 0.2-0.5 0.7-0.8 1.2-0.6 0.4 0.1 0.7 0.6 0.6 1.1-0.1 0.2-0.8 2.3-2.1 5.3-0.2 0.2 0 0.5 0.2 0.5h8.8c2 0 3.4 0.7 4.1 1.9 0.7 1.3 0.4 2.9-0.7 4.6zm60-25.8h14.6c0.3 0 0.5-0.2 0.5-0.5v-4.3c0-0.5 0.4-0.9 0.8-0.9 0.5 0 0.9 0.4 0.9 0.9v4.3c0 0.3 0.2 0.5 0.5 0.5h14.6c0.4 0 0.8 0.4 0.8 0.9v5.7c0 0.5-0.4 0.9-0.8 0.9-0.5 0-0.9-0.4-0.9-0.9v-4.4c0-0.3-0.2-0.5-0.5-0.5h-9.2c-0.3 0-0.6 0.2-0.6 0.5v11.7c0 0.2 0.2 0.3 0.4 0.3h9.4c0.5 0 0.9 0.4 0.9 0.8 0 0.5-0.4 0.9-0.9 0.9h-10.6c-0.5 0-0.8-0.4-0.8-0.9v-12.8c0-0.3-0.3-0.5-0.5-0.5h-5.7c-0.3 0-0.6 0.2-0.6 0.5v2.9c0 11.6-10.7 11.8-10.8 11.8-0.4 0-0.8-0.4-0.8-0.9 0-0.4 0.4-0.8 0.8-0.8 0.4 0 9.2-0.2 9.2-10.1v-2.9c0-0.3-0.3-0.5-0.5-0.5h-8.8c-0.3 0-0.5 0.2-0.5 0.5v4.4c0 0.5-0.4 0.9-0.9 0.9-0.4 0-0.8-0.4-0.8-0.9v-5.7c0-0.5 0.4-0.9 0.8-0.9zm23.9 34.4h9.1c0.5 0 0.9 0.3 0.9 0.8 0 0.5-0.4 0.8-0.9 0.8h-9.1c-1.3 0-2.5-0.5-3.2-1.5-0.7-0.9-0.9-2.2-0.5-3.5l1.7-5.5c0.3-0.8 0.2-1.5-0.2-2-0.4-0.6-1-0.9-1.9-0.9h-5.8c-0.3 0-0.6 0.3-0.7 0.5-2.7 10.2-12.9 13.3-13 13.3-0.5 0.1-0.9-0.1-1.1-0.6-0.1-0.4 0.1-0.9 0.6-1 0.4-0.1 9.2-2.8 11.8-11.7 0.1-0.2-0.1-0.5-0.4-0.5h-8.9c-0.4 0-0.8-0.3-0.8-0.8 0-0.5 0.4-0.8 0.8-0.8h9.3c0.3 0 0.5-0.3 0.6-0.5q0.1-1.3 0.1-2.6v-3.4c0-0.5 0.4-0.9 0.9-0.9 0.4 0 0.8 0.4 0.8 0.9v3.4q0 1.3-0.1 2.6c-0.1 0.2 0.1 0.5 0.4 0.5h5.5c1.4 0 2.6 0.5 3.3 1.5 0.7 0.9 0.8 2.2 0.4 3.5l-1.7 5.5c-0.2 0.8-0.1 1.5 0.3 2 0.3 0.6 1 0.9 1.8 0.9zm28.6-13.9h-8.5c-0.3 0-0.6 0.2-0.6 0.5-0.8 10-2.8 14.7-2.9 15-0.2 0.4-0.7 0.6-1.1 0.4-0.5-0.2-0.7-0.7-0.5-1.1 0.1-0.1 3.2-7.5 3.2-23.3v-4.6c0-0.4 0.4-0.8 0.8-0.8h9.6c1.6 0 2.9 1.3 2.9 2.9v8.1c0 1.6-1.3 2.9-2.9 2.9zm1.2-11c0-0.7-0.6-1.2-1.2-1.2h-8.2c-0.3 0-0.5 0.2-0.5 0.5v3.2q0 3.4-0.2 6.3c0 0.3 0.2 0.5 0.5 0.5h8.4c0.6 0 1.2-0.6 1.2-1.2zm-13.1-10c0-0.5 0.4-0.9 0.9-0.9h14.5c0.4 0 0.8 0.4 0.8 0.9 0 0.4-0.4 0.8-0.8 0.8h-14.5c-0.5 0-0.9-0.4-0.9-0.8zm34.7 14.5h-3.5c-0.3 0-0.5 0.2-0.5 0.5v21.8c0 0.4-0.4 0.8-0.9 0.8-0.4 0-0.8-0.4-0.8-0.8v-21.8c0-0.3-0.2-0.5-0.5-0.5h-6.3c-0.3 0-0.5 0.2-0.5 0.5-0.4 15.4-6.5 21.4-6.7 21.7-0.4 0.3-0.9 0.3-1.2 0-0.3-0.3-0.3-0.9 0-1.2 0.1-0.1 6.2-6.3 6.2-21.9v-8.1c0-2.7 2.2-5.1 4.9-5.4l8.2-1c0.4 0 0.8 0.3 0.9 0.8 0 0.4-0.3 0.8-0.7 0.9l-8.2 0.9c-1.9 0.2-3.4 1.9-3.4 3.8v6.8c0 0.3 0.2 0.5 0.5 0.5h12.5c0.4 0 0.8 0.4 0.8 0.8 0 0.5-0.4 0.9-0.8 0.9z"/>
			<path id="&lt;Compound Path&gt;" fill-rule="evenodd" class="s1" d="m-38.7-113.6c0-15.9 12.9-28.9 28.8-28.9 15.9 0 28.9 13 28.9 28.9 0 11.7-7.1 22.2-18 26.7-0.3 0.1-0.5 0.1-0.8-0.1-0.2-0.1-0.3-0.4-0.3-0.7v-2c0-2.6-1.4-5.8-3-7l-5.3-3.8c-0.7-0.5-1.5-1.6-1.7-2.5l-0.6-2.7c-0.1-0.4 0.2-0.8 0.6-0.9 0.4-0.1 0.9 0.1 1 0.6l0.6 2.7c0.1 0.4 0.4 0.9 0.8 1.3 0.2 0.2 0.5 0.2 0.6-0.1l1-3.2c0.2-0.4 0-1-0.3-1.3l-3.7-2.9c-0.4-0.3-1.1-0.7-1.5-0.7l-2.1-0.4q-0.3 0.1-0.4 0.2c-0.2 0.2-0.3 0.6-0.2 1.1l1.5 6.4c0.1 0.4-0.1 0.8-0.5 0.9-0.4 0.1-0.7-0.2-0.8-0.5l-1.5-6.5q-0.2-0.9 0.1-1.6c0-0.2-0.1-0.3-0.2-0.4l-1.8-0.3c-0.2 0-0.4 0-0.5 0.1q-0.1 0-0.2 0.1c-0.2 0.2-0.3 0.6-0.2 1.1l1.5 6.4c0.1 0.4-0.1 0.8-0.5 0.9-0.4 0-0.8-0.2-0.8-0.6l-1.5-6.4q-0.2-0.9 0.1-1.6c0-0.2-0.1-0.3-0.2-0.4l-1.8-0.3c-0.2 0-0.4 0-0.5 0q-0.1 0.1-0.2 0.2c-0.2 0.2-0.3 0.6-0.2 1l1.5 6.5c0.1 0.4-0.1 0.7-0.5 0.8-0.4 0.1-0.8-0.1-0.8-0.5l-1.5-6.4q-0.2-0.9 0-1.7c0.1-0.1 0-0.3-0.1-0.3l-1.5-0.2c-0.4-0.1-0.8 0-0.9 0.2-0.2 0.2-0.3 0.5-0.2 0.9l2.6 11.4c0.3 1.2 1.5 2.7 2.6 3.3l13.7 7.3c1 0.6 1.8 1.9 1.8 3.1v0.6c0 0.4-0.3 0.8-0.7 0.8q-1.7 0.2-3.4 0.2c-15.9 0-28.8-12.9-28.8-28.8zm23.9 1.2c0.3 0 0.6-0.1 0.7-0.4l2-4.2c0.1-0.1 0-0.4-0.1-0.5l-4.8-3.1c-1-0.7-1.6-1.7-1.5-2.8 0-1.3 1-2.6 2.6-3.5 0.1 0 8.6-4.9 13.5-12.4 0.2-0.2 0.1-0.5-0.2-0.6-2.3-0.6-4.7-1-7.3-1-15 0-27.2 12.3-27.2 27.3 0 15 12.2 27.2 27.2 27.2q1 0 2 0c0.3-0.1 0.5-0.3 0.4-0.6-0.1-0.4-0.5-0.9-0.9-1.1l-13.7-7.3c-1.5-0.8-2.9-2.7-3.3-4.4l-2.6-11.3c-0.3-1-0.1-1.9 0.5-2.4 0.6-0.6 1.4-0.9 2.4-0.7zm10.2 7.6l-1.2 3.6c-0.1 0.3 0.1 0.7 0.3 0.8l3.4 2.4c1.9 1.4 3.6 4.9 3.6 8.6 0 0.3 0.2 0.4 0.5 0.3 9.4-4.6 15.4-14 15.4-24.5 0-11.6-7.3-21.5-17.4-25.4-0.3-0.1-0.6 0-0.8 0.2-1.2 1.8-2.5 3.5-3.9 5-0.1 0.1-0.1 0.3 0 0.4q0.2 0.1 0.5 0.3 0.2 0.2 0.4 0.4c0.1 0.1 0.2 0.1 0.3 0 1.7-2.3 3.6-2.9 5-2.2 1.2 0.5 2.1 1.9 1.9 4 0 0.2 0.1 0.4 0.3 0.4l0.8 0.4c0.4 0.2 0.6 0.6 0.4 1-0.2 0.4-0.6 0.6-1 0.4l-0.6-0.2c-0.1-0.1-0.3 0-0.3 0.1q-0.2 0.7-0.6 1.4c-1.8 4.1-4.4 5.1-6.2 4.3-1.7-0.8-2.7-3.3-1.1-7.1 0.1-0.2 0.2-0.5 0.2-0.6 0-0.3-0.1-0.7-0.4-1-0.2-0.3-0.5-0.4-0.8-0.5-0.1 0-0.4 0.1-0.5 0.2-4.3 4-8.5 6.5-8.8 6.6-1 0.6-1.7 1.4-1.7 2.2 0 0.6 0.4 1.1 0.8 1.3l4.7 3.2c0.8 0.5 1.1 1.6 0.7 2.5l-1.8 3.8c-0.1 0.2 0 0.5 0.3 0.5l0.8 0.2c0.7 0.1 1.7 0.6 2.3 1l3.7 3c0.8 0.7 1.2 2 0.8 3zm-0.4-9.8c0 0.4-0.4 0.8-0.8 0.8h-2.3c-0.5 0-0.8-0.4-0.8-0.8 0-0.5 0.3-0.8 0.8-0.8h2.3c0.4 0 0.8 0.3 0.8 0.8zm1.8-9.9c1.1 0.5 2.9-0.6 4.3-3.5 1.3-3 0.9-5.1-0.2-5.5-1.1-0.5-2.9 0.5-4.2 3.5-1.3 3-0.9 5 0.1 5.5z"/>
		</g>
		<g id="&lt;Group&gt;">
			<path id="&lt;Compound Path&gt;" fill-rule="evenodd" class="s1" d="m29.8 119.7v14.3c0 7.3-5.9 13.2-13.3 13.2h-1.2c-7.3 0-13.3-5.9-13.3-13.2v-14.3c0-7.3 6-13.3 13.3-13.3h1.2c7.4 0 13.3 6 13.3 13.3zm-14.5-11.5c-6.3 0-11.5 5.2-11.5 11.5v5.3c0 0.3 0.3 0.6 0.5 0.6h23.2c0.3 0 0.5-0.3 0.5-0.6v-5.3c0-6.3-5.1-11.5-11.5-11.5zm1.3 37.2c6.3 0 11.5-5.1 11.5-11.4v-6.1c0-0.3-0.3-0.5-0.6-0.5h-23.1c-0.3 0-0.5 0.2-0.5 0.5v6.1c0 6.3 5.1 11.4 11.4 11.4zm56-37.4h12.7c0.4 0 0.8 0.3 0.8 0.8 0 0.4-0.4 0.8-0.8 0.8h-6c-0.3 0-0.6 0.3-0.6 0.5-0.1 1.8-0.5 6.1-1.5 11.5-0.1 0.3 0.1 0.5 0.4 0.5h4.6c1.6 0 2.9 1.3 2.9 2.9v17.9c0 1.6-1.3 2.9-2.9 2.9h-4.2c-1.6 0-2.9-1.3-2.9-2.9v-11.8c0-0.5-0.2-0.6-0.3 0-1.1 3.5-2.6 7-4.4 10.4-0.2 0.4-0.7 0.5-1.1 0.3-0.4-0.2-0.6-0.7-0.3-1.1 6.4-11.9 7.8-26.8 8-30.6 0.1-0.2-0.2-0.5-0.4-0.5h-4c-0.5 0-0.8-0.4-0.8-0.8 0-0.5 0.3-0.8 0.8-0.8zm10.8 17c0-0.7-0.5-1.2-1.2-1.2h-4.9c-0.3 0-0.6 0.2-0.6 0.5v18.6c0 0.6 0.6 1.2 1.3 1.2h4.2c0.7 0 1.2-0.6 1.2-1.2zm20.8-1.5h3.3c0.5 0 0.9 0.4 0.9 0.8 0 0.5-0.4 0.9-0.9 0.9h-3.3c-0.3 0-0.6 0.2-0.6 0.5v19.9c0 0.5-0.3 0.8-0.8 0.8-0.5 0-0.8-0.3-0.8-0.8v-19.9c0-0.3-0.3-0.5-0.5-0.5h-6.1c-0.2 0-0.5 0.2-0.5 0.5-0.8 14-6.4 19.6-6.6 19.8-0.4 0.3-0.9 0.3-1.2 0-0.3-0.3-0.3-0.9 0-1.2 0 0 1.6-1.5 3.1-5 1.2-2.7 2.7-7.2 3-13.6 0-0.3-0.2-0.5-0.5-0.5h-4.4c-0.4 0-0.8-0.4-0.8-0.9 0-0.4 0.4-0.8 0.8-0.8h4.5c0.3 0 0.5-0.2 0.5-0.5q0-0.3 0-0.5v-12.4c0-0.3-0.2-0.5-0.5-0.5h-3c-0.5 0-0.8-0.4-0.8-0.8 0-0.5 0.3-0.9 0.8-0.9h16.3c0.4 0 0.8 0.4 0.8 0.9 0 0.4-0.4 0.8-0.8 0.8h-1.9c-0.3 0-0.6 0.2-0.6 0.5v12.9c0 0.3 0.3 0.5 0.6 0.5zm-8.7 0h6c0.2 0 0.5-0.2 0.5-0.5v-12.9c0-0.3-0.3-0.5-0.5-0.5h-6c-0.3 0-0.5 0.2-0.5 0.5v12.4q0 0.2 0 0.5c0 0.3 0.2 0.5 0.5 0.5zm-40.2 11.6c-0.2 0.2-0.2 0.5 0.1 0.7l3.6 2.9c0.4 0.3 0.5 0.9 0.2 1.3-0.3 0.4-0.9 0.5-1.3 0.2l-9.8-7.9c-0.4-0.3-0.5-0.9-0.2-1.3 0.3-0.4 0.9-0.4 1.3-0.1l3.9 3.1c0.3 0.2 0.6 0.2 0.7-0.1l7.1-10.2c0.7-1 0.9-2 0.6-2.6-0.3-0.7-1.3-1.1-2.5-1.1h-9.7c-0.2 0-0.6 0.3-0.7 0.5-2.3 4.2-5.7 9.2-10.6 12.9-0.4 0.3-1 0.2-1.3-0.2-0.3-0.4-0.2-0.9 0.2-1.2 9.3-7.1 13.4-19.9 13.4-20 0.2-0.5 0.7-0.8 1.2-0.6 0.5 0.1 0.7 0.6 0.6 1.1-0.1 0.2-0.8 2.3-2.1 5.3-0.2 0.2 0 0.4 0.3 0.4h8.7c2 0 3.4 0.7 4.1 2 0.7 1.3 0.4 2.9-0.7 4.5zm60-25.7h14.6c0.3 0 0.5-0.2 0.5-0.5v-4.4c0-0.4 0.4-0.8 0.9-0.8 0.4 0 0.8 0.4 0.8 0.8v4.4c0 0.3 0.2 0.5 0.5 0.5h14.6c0.4 0 0.8 0.4 0.8 0.8v5.8c0 0.5-0.4 0.8-0.8 0.8-0.5 0-0.9-0.3-0.9-0.8v-4.4c0-0.3-0.2-0.5-0.5-0.5h-9.2c-0.3 0-0.5 0.2-0.5 0.5v11.7c0 0.1 0.1 0.3 0.3 0.3h9.4c0.5 0 0.9 0.4 0.9 0.8 0 0.5-0.4 0.9-0.9 0.9h-10.6c-0.4 0-0.8-0.4-0.8-0.9v-12.8c0-0.3-0.2-0.5-0.5-0.5h-5.7c-0.3 0-0.6 0.2-0.6 0.5v2.9c0 11.6-10.7 11.7-10.8 11.7-0.4 0-0.8-0.3-0.8-0.8 0-0.5 0.4-0.8 0.8-0.8 0.4 0 9.2-0.2 9.2-10.1v-2.9c0-0.3-0.3-0.5-0.5-0.5h-8.8c-0.3 0-0.5 0.2-0.5 0.5v4.4c0 0.5-0.4 0.8-0.9 0.8-0.4 0-0.8-0.3-0.8-0.8v-5.8c0-0.4 0.4-0.8 0.8-0.8zm23.9 34.3h9.1c0.5 0 0.9 0.4 0.9 0.9 0 0.4-0.4 0.8-0.9 0.8h-9.1c-1.3 0-2.5-0.5-3.2-1.5-0.7-0.9-0.9-2.2-0.5-3.5l1.7-5.5c0.3-0.8 0.2-1.5-0.2-2.1-0.4-0.5-1-0.8-1.9-0.8h-5.8c-0.3 0-0.6 0.2-0.7 0.5-2.7 10.1-12.9 13.2-13 13.3-0.5 0.1-0.9-0.1-1.1-0.6-0.1-0.4 0.2-0.9 0.6-1 0.5-0.2 9.2-2.9 11.8-11.7 0.1-0.3-0.1-0.5-0.4-0.5h-8.9c-0.4 0-0.8-0.4-0.8-0.8 0-0.5 0.4-0.8 0.8-0.8h9.3c0.3 0 0.5-0.3 0.6-0.6q0.1-1.2 0.1-2.5v-3.4c0-0.5 0.4-0.9 0.9-0.9 0.4 0 0.8 0.4 0.8 0.9v3.4q0 1.3-0.1 2.5c-0.1 0.3 0.1 0.6 0.4 0.6h5.5c1.4 0 2.6 0.5 3.3 1.4 0.7 1 0.8 2.3 0.4 3.6l-1.7 5.5c-0.2 0.8-0.1 1.5 0.3 2 0.4 0.6 1 0.8 1.8 0.8zm28.6-13.9h-8.5c-0.3 0-0.6 0.3-0.6 0.5-0.8 10.1-2.8 14.8-2.9 15-0.2 0.5-0.7 0.7-1.1 0.5-0.5-0.2-0.6-0.7-0.5-1.1 0.1-0.1 3.2-7.5 3.2-23.3v-4.6c0-0.5 0.4-0.8 0.8-0.8h9.6c1.6 0 2.9 1.3 2.9 2.9v8c0 1.6-1.3 2.9-2.9 2.9zm1.2-10.9c0-0.7-0.5-1.3-1.2-1.3h-8.2c-0.3 0-0.5 0.3-0.5 0.5v3.3q0 3.4-0.2 6.3c0 0.2 0.2 0.5 0.5 0.5h8.4c0.7 0 1.2-0.6 1.2-1.3zm-13-10c0-0.4 0.3-0.8 0.8-0.8h14.5c0.4 0 0.8 0.4 0.8 0.8 0 0.5-0.4 0.9-0.8 0.9h-14.5c-0.5 0-0.8-0.4-0.8-0.9zm34.6 14.6h-3.5c-0.3 0-0.5 0.2-0.5 0.5v21.8c0 0.4-0.4 0.8-0.8 0.8-0.5 0-0.9-0.4-0.9-0.8v-21.8c0-0.3-0.2-0.5-0.5-0.5h-6.3c-0.3 0-0.5 0.2-0.5 0.5-0.3 15.3-6.4 21.4-6.7 21.7-0.3 0.3-0.9 0.3-1.2 0-0.3-0.4-0.3-0.9 0-1.2 0.1-0.1 6.2-6.3 6.2-21.9v-8.2c0-2.6 2.2-5.1 4.9-5.4l8.2-0.9c0.4 0 0.8 0.3 0.9 0.8 0.1 0.4-0.3 0.8-0.7 0.9l-8.2 0.9c-1.8 0.2-3.4 1.9-3.4 3.7v6.9c0 0.3 0.2 0.5 0.5 0.5h12.5c0.4 0 0.8 0.4 0.8 0.8 0 0.5-0.4 0.9-0.8 0.9z"/>
			<path id="&lt;Compound Path&gt;" fill-rule="evenodd" class="s1" d="m51.7 46.1c0-24.8 20.2-45 44.9-45 24.8 0 45 20.2 45 45 0 9-2.8 17.8-7.9 25.3-5 7.3-12 12.9-20.1 16.2-0.3 0.2-0.7 0.1-0.9-0.1-0.3-0.1-0.5-0.4-0.5-0.8v-3.2c0-4.2-2.1-9.3-4.7-11.1l-8.4-6c-1.1-0.7-2.2-2.4-2.5-3.7l-1-4.3c-0.1-0.5 0.2-1 0.8-1.1 0.5-0.2 1 0.2 1.1 0.7l1 4.2c0.2 0.7 0.8 1.8 1.7 2.6 0.3 0.3 0.8 0.1 0.9-0.3l1.8-5.4c0.2-0.7-0.1-1.7-0.7-2.2l-5.7-4.7c-0.6-0.5-1.8-1-2.6-1.1l-2.6-0.5c-0.3 0-0.7-0.1-1 0.1q-0.3 0.1-0.4 0.3c-0.4 0.4-0.5 1-0.4 1.8l2.4 10.2c0.1 0.4-0.2 0.9-0.7 1-0.4 0.1-0.9-0.2-1-0.6l-2.4-10.2c-0.2-1-0.1-1.9 0.3-2.7 0.1-0.2 0-0.4-0.3-0.5l-2.9-0.5c-0.2 0-0.7-0.1-1 0q-0.3 0.2-0.5 0.4c-0.4 0.4-0.5 1-0.3 1.8l2.3 10.1c0.2 0.5-0.1 1-0.6 1.1-0.5 0.1-0.9-0.2-1-0.7l-2.4-10.1c-0.2-1-0.1-1.9 0.3-2.7 0.1-0.2 0-0.5-0.3-0.5l-2.9-0.5c-0.3-0.1-0.7-0.1-1 0q-0.3 0.1-0.5 0.3c-0.4 0.5-0.5 1.1-0.3 1.9l2.3 10.1c0.1 0.5-0.2 0.9-0.6 1.1-0.5 0.1-1-0.2-1.1-0.7l-2.3-10.1c-0.3-1-0.2-1.9 0.2-2.7 0.1-0.3 0.1-0.5-0.2-0.5l-2.6-0.5c-0.8-0.1-1.4 0-1.8 0.4-0.3 0.4-0.4 1-0.3 1.7l4.2 17.8c0.4 2 2.3 4.4 4.1 5.4l21.5 11.5c1.5 0.8 2.7 2.8 2.7 4.6v1c0 0.5-0.3 0.9-0.8 1q-2.7 0.3-5.4 0.3c-24.7 0-44.9-20.2-44.9-44.9zm38.5 1.5l3.2-6.7c0.2-0.4 0-0.9-0.3-1.1l-7.4-5c-1.5-1-2.4-2.5-2.3-4 0.1-2 1.5-3.9 3.9-5.3 0.1-0.1 13.8-7.9 21.5-19.8 0.3-0.4 0.1-0.8-0.3-0.9-3.8-1.1-7.7-1.7-11.9-1.7-23.6 0-42.9 19.3-42.9 43 0 23.6 19.3 42.9 42.9 42.9q1.8 0 3.5-0.1c0.4-0.1 0.8-0.5 0.7-0.9-0.3-0.9-0.9-1.8-1.6-2.2l-21.6-11.5c-2.2-1.2-4.5-4.1-5-6.6l-4.2-17.8c-0.3-1.4 0-2.7 0.8-3.6 0.8-0.8 2.1-1.2 3.5-0.9l16.3 2.8c0.5 0.1 1-0.2 1.2-0.6zm24.7 37.3c6.9-3.3 12.8-8.3 17.2-14.7 4.9-7.1 7.5-15.5 7.5-24.1 0-18.3-11.5-34-27.6-40.2-0.5-0.1-1 0-1.2 0.4-2 3.1-4.2 5.8-6.6 8.3-0.1 0.2-0.1 0.3 0.1 0.4 0.3 0.2 0.7 0.4 1.1 0.7 0.3 0.3 0.6 0.7 0.7 0.9 0.2 0.2 0.3 0.3 0.5 0.1 2.6-3.9 5.6-4.8 7.8-3.8 1.9 0.8 3.1 3 2.8 6.3 0 0.2 0.1 0.5 0.3 0.6l1.6 0.7c0.5 0.2 0.7 0.7 0.4 1.2-0.1 0.4-0.5 0.6-0.8 0.6q-0.2 0-0.4-0.1l-1.2-0.5c-0.2-0.1-0.4 0-0.4 0.2q-0.4 1.2-1 2.4c-2.8 6.3-6.7 7.9-9.4 6.7-2.6-1.2-4-5-1.5-11 0.1-0.2 0.2-0.5 0.2-0.8 0-0.5-0.2-1.3-0.7-1.9-0.4-0.5-1.1-0.7-1.5-0.8-0.2 0-0.6 0.1-0.7 0.2-6.7 6.5-13.4 10.3-13.8 10.5-1.8 1-2.9 2.4-3 3.6 0 1.2 0.8 1.9 1.5 2.4l7.4 4.9c1.1 0.8 1.6 2.4 1 3.6l-3 6.3c-0.2 0.4 0 0.8 0.5 0.9l1.6 0.2c1 0.2 2.5 0.9 3.4 1.6l5.8 4.7c1.2 1 1.7 2.9 1.2 4.3l-1.9 6c-0.2 0.4 0 1 0.4 1.2l5.4 3.9c3 2.1 5.6 7.5 5.6 13.6 0 0.5 0.3 0.7 0.7 0.5zm-10.9-40.4c0 0.5-0.4 1-1 1h-3.6c-0.5 0-1-0.5-1-1 0-0.6 0.5-1 1-1h3.6c0.6 0 1 0.4 1 1zm3.1-15.3c2.4 1.1 5.3-2 6.9-5.6q0 0 0 0 0 0 0 0c1.6-3.7 2.1-7.9-0.3-9-2.4-1.1-5.3 2-7 5.7q0 0 0 0c-1.6 3.6-2 7.9 0.4 8.9z"/>
		</g>
		<g id="&lt;Group&gt;">
			<path id="&lt;Compound Path&gt;" fill-rule="evenodd" class="s1" d="m338.2-113.6c0-15.9 12.9-28.9 28.8-28.9 15.9 0 28.9 13 28.9 28.9 0 11.7-7.1 22.2-18 26.7-0.3 0.1-0.5 0.1-0.8-0.1-0.2-0.1-0.3-0.4-0.3-0.7v-2c0-2.6-1.4-5.8-3-7l-5.3-3.8c-0.7-0.5-1.5-1.6-1.7-2.5l-0.6-2.7c-0.1-0.4 0.2-0.8 0.6-0.9 0.4-0.1 0.9 0.1 1 0.6l0.6 2.7c0.1 0.4 0.4 0.9 0.8 1.3 0.2 0.2 0.5 0.2 0.6-0.1l1-3.2c0.2-0.4 0-1-0.3-1.3l-3.7-2.9c-0.4-0.3-1.1-0.7-1.6-0.7l-2-0.4q-0.3 0.1-0.4 0.2c-0.2 0.2-0.3 0.6-0.2 1.1l1.5 6.4c0.1 0.4-0.1 0.8-0.5 0.9-0.4 0.1-0.7-0.2-0.8-0.5l-1.5-6.5q-0.2-0.9 0.1-1.6c0-0.2-0.1-0.3-0.2-0.4l-1.8-0.3c-0.2 0-0.4 0-0.5 0.1q-0.1 0-0.2 0.1c-0.2 0.2-0.3 0.6-0.2 1.1l1.5 6.4c0.1 0.4-0.1 0.8-0.5 0.9-0.4 0-0.8-0.2-0.8-0.6l-1.5-6.4q-0.2-0.9 0.1-1.6c0-0.2-0.1-0.3-0.2-0.4l-1.8-0.3c-0.2 0-0.4 0-0.5 0q-0.1 0.1-0.2 0.2c-0.2 0.2-0.3 0.6-0.2 1l1.5 6.5c0.1 0.4-0.1 0.7-0.5 0.8-0.4 0.1-0.8-0.1-0.8-0.5l-1.5-6.4q-0.2-0.9 0-1.7c0.1-0.1 0-0.3-0.1-0.3l-1.5-0.2c-0.4-0.1-0.8 0-0.9 0.2-0.2 0.2-0.3 0.5-0.2 0.9l2.6 11.4c0.3 1.2 1.5 2.7 2.6 3.3l13.7 7.3c1 0.6 1.8 1.9 1.8 3.1v0.6c0 0.4-0.3 0.8-0.7 0.8q-1.7 0.2-3.4 0.2c-15.9 0-28.8-12.9-28.8-28.8zm23.9 1.2c0.3 0 0.6-0.1 0.7-0.4l2-4.2c0.1-0.1 0-0.4-0.1-0.5l-4.8-3.1c-1-0.7-1.6-1.7-1.5-2.8 0-1.3 1-2.6 2.6-3.5 0.1 0 8.6-4.9 13.5-12.4 0.2-0.2 0.1-0.5-0.2-0.6-2.3-0.6-4.7-1-7.3-1-15 0-27.2 12.3-27.2 27.3 0 15 12.2 27.2 27.2 27.2q1 0 2 0c0.3-0.1 0.5-0.3 0.4-0.6-0.1-0.4-0.5-0.9-0.9-1.1l-13.7-7.3c-1.5-0.8-2.9-2.7-3.3-4.4l-2.7-11.3c-0.2-1 0-1.9 0.6-2.4 0.6-0.6 1.4-0.9 2.4-0.7zm10.2 7.6l-1.2 3.6c-0.1 0.3 0.1 0.7 0.3 0.8l3.4 2.4c1.9 1.4 3.6 4.9 3.6 8.6 0 0.3 0.2 0.4 0.5 0.3 9.4-4.6 15.4-14 15.4-24.5 0-11.6-7.3-21.5-17.4-25.4-0.3-0.1-0.6 0-0.8 0.2-1.2 1.8-2.5 3.5-3.9 5-0.1 0.1-0.1 0.3 0 0.4q0.2 0.1 0.5 0.3 0.2 0.2 0.3 0.4c0.2 0.1 0.3 0.1 0.4 0 1.7-2.3 3.6-2.9 5-2.2 1.2 0.5 2.1 1.9 1.9 4 0 0.2 0.1 0.4 0.3 0.4l0.8 0.4c0.4 0.2 0.6 0.6 0.4 1-0.2 0.4-0.6 0.6-1 0.4l-0.6-0.2c-0.1-0.1-0.3 0-0.3 0.1q-0.2 0.7-0.6 1.4c-1.8 4.1-4.4 5.1-6.2 4.3-1.7-0.8-2.7-3.3-1.1-7.1 0.1-0.2 0.2-0.5 0.2-0.6 0-0.3-0.1-0.7-0.4-1-0.2-0.3-0.5-0.4-0.8-0.5-0.1 0-0.4 0.1-0.5 0.2-4.3 4-8.5 6.5-8.8 6.6-1 0.6-1.7 1.4-1.7 2.2 0 0.6 0.4 1.1 0.8 1.3l4.7 3.2c0.8 0.5 1.1 1.6 0.7 2.5l-1.8 3.8c-0.1 0.2 0 0.5 0.3 0.5l0.8 0.2c0.7 0.1 1.7 0.6 2.3 1l3.7 3c0.8 0.7 1.2 2 0.8 3zm-0.4-9.8c0 0.4-0.4 0.8-0.8 0.8h-2.3c-0.5 0-0.8-0.4-0.8-0.8 0-0.5 0.3-0.8 0.8-0.8h2.3c0.4 0 0.8 0.3 0.8 0.8zm1.8-9.9c1.1 0.5 2.9-0.6 4.3-3.5 1.3-3 0.9-5.1-0.2-5.5-1.1-0.5-2.9 0.5-4.2 3.5-1.3 3-0.9 5 0.1 5.5z"/>
			<path id="&lt;Compound Path&gt;" fill-rule="evenodd" class="s1" d="m450-130.9v5.3c0 0.5-0.4 0.9-0.9 0.9-0.5 0-0.9-0.4-0.9-0.9v-5.3c0-0.5 0.4-0.9 0.9-0.9 0.5 0 0.9 0.4 0.9 0.9zm0 11.3v24.8c0 0.5-0.4 0.9-0.9 0.9-0.5 0-0.9-0.4-0.9-0.9v-24.8c0-0.5 0.4-0.9 0.9-0.9 0.5 0 0.9 0.4 0.9 0.9zm41.5-11.3v5.3c0 0.5-0.4 0.9-0.9 0.9-0.5 0-0.9-0.4-0.9-0.9v-5.3c0-0.5 0.4-0.9 0.9-0.9 0.5 0 0.9 0.4 0.9 0.9zm0 11.3v24.8c0 0.5-0.4 0.9-0.9 0.9-0.5 0-0.9-0.4-0.9-0.9v-24.8c0-0.5 0.4-0.9 0.9-0.9 0.5 0 0.9 0.4 0.9 0.9zm-54.5 24.8c0 0.5-0.4 0.9-0.9 0.9-0.5 0-0.9-0.4-0.9-0.9v-16.6c0-0.3-0.3-0.5-0.6-0.5h-21c-0.2 0-0.5 0.2-0.5 0.5v16.6c0 0.5-0.4 0.9-0.9 0.9-0.5 0-0.9-0.4-0.9-0.9v-36.1c0-0.5 0.4-0.9 0.9-0.9 0.5 0 0.9 0.4 0.9 0.9v16.6c0 0.3 0.3 0.5 0.5 0.5h21c0.3 0 0.6-0.2 0.6-0.5v-16.6c0-0.5 0.4-0.9 0.9-0.9 0.5 0 0.9 0.4 0.9 0.9zm78.1-10.8h-13.8c-0.5 0-0.9-0.4-0.9-0.9 0-0.5 0.4-0.9 0.9-0.9h13.8c0.5 0 0.9 0.4 0.9 0.9 0 0.5-0.4 0.9-0.9 0.9zm30.6 11.7h-19.9c-0.5 0-0.9-0.4-0.9-0.9v-36.1c0-0.5 0.4-0.9 0.9-0.9 0.5 0 0.9 0.4 0.9 0.9v34.9c0 0.2 0.1 0.3 0.3 0.3h18.7c0.5 0 0.9 0.4 0.9 0.9 0 0.5-0.4 0.9-0.9 0.9zm-74.1-26c5.1 0 9.2 4.1 9.2 9.2v7.7c0 5-4.1 9.1-9.2 9.1h-0.6c-2.9 0-5.6-1.3-7.4-3.5-0.3-0.4-0.6-0.3-0.6 0.3v2.3c0 0.5-0.4 0.9-0.9 0.9-0.5 0-0.9-0.4-0.9-0.9v-36.1c0-0.5 0.4-0.9 0.9-0.9 0.5 0 0.9 0.4 0.9 0.9v13.7c0 0.5 0.3 0.6 0.7 0.2 1.6-1.8 4-2.9 6.6-2.9zm7.4 9.2c0-4.1-3.3-7.4-7.4-7.4h-1.2c-4.1 0-7.4 3.3-7.4 7.4v6.6c0 4.6 3.6 8.4 8 8.4h0.6c4.1 0 7.4-3.3 7.4-7.3zm94.2 15.3c0.3 0.4 0.3 1-0.1 1.3-0.4 0.3-1 0.3-1.3-0.1q0 0 0 0c-0.1-0.2-0.9-1.2-1.6-2.8-0.1-0.3-0.3-0.3-0.4-0.1-1.7 2.4-4.5 3.9-7.8 3.9h-3.3c-3.9 0-7.1-3.1-7.1-7v-2.2c0-3.9 3.2-7.1 7.1-7.1h10.1c0.3 0 0.6-0.2 0.6-0.5v-1.8c0-3.4-2.4-5.9-6.1-6.3-5.1-0.5-8.6 2.2-8.6 2.2-0.4 0.3-1 0.2-1.3-0.2-0.3-0.4-0.3-0.9 0.1-1.2 0.2-0.2 4.1-3.2 10-2.6 4.6 0.5 7.7 3.8 7.7 8.1v10.4c0 3.5 2 6 2 6zm-11.2 0.4c4.1 0 7.4-2.9 7.4-6.5v-5.6c0-0.3-0.3-0.5-0.6-0.5h-10.1c-2.9 0-5.3 2.3-5.3 5.2v2.2c0 2.9 2.4 5.2 5.3 5.2zm29.4-24.9c5 0 9.1 4.1 9.1 9.2v7.7c0 5-4.1 9.1-9.1 9.1h-0.6c-3 0-5.6-1.3-7.4-3.4-0.3-0.5-0.6-0.4-0.6 0.2v2.3c0 0.5-0.4 0.9-0.9 0.9-0.5 0-0.9-0.4-0.9-0.9v-36.1c0-0.5 0.4-0.9 0.9-0.9 0.5 0 0.9 0.4 0.9 0.9v13.7c0 0.5 0.3 0.6 0.7 0.2 1.6-1.8 4-2.9 6.6-2.9zm7.4 9.2c0-4.1-3.3-7.4-7.4-7.4h-1.3c-4 0-7.3 3.3-7.3 7.4v6.6c0 4.7 3.6 8.4 8 8.4h0.6c4.1 0 7.4-3.3 7.4-7.3z"/>
		</g>
		<g id="&lt;Group&gt;">
			<path id="&lt;Compound Path&gt;" fill-rule="evenodd" class="s1" d="m415.2 42.4c0-24.7 20.1-44.9 44.9-44.9 24.8 0 44.9 20.2 44.9 44.9 0 9.1-2.7 17.8-7.8 25.3-5 7.3-12 13-20.2 16.3-0.3 0.1-0.6 0.1-0.9-0.1-0.2-0.2-0.4-0.5-0.4-0.8v-3.2c0-4.2-2.2-9.3-4.7-11.1l-8.4-6c-1.1-0.8-2.2-2.4-2.5-3.8l-1-4.2c-0.1-0.5 0.2-1 0.7-1.2 0.6-0.1 1.1 0.2 1.2 0.8l1 4.2c0.1 0.7 0.7 1.8 1.6 2.6 0.4 0.3 0.8 0.1 1-0.3l1.7-5.4c0.3-0.7 0-1.7-0.6-2.2l-5.8-4.7c-0.6-0.5-1.8-1-2.5-1.1l-2.6-0.5c-0.3 0-0.8-0.1-1 0q-0.3 0.2-0.5 0.4c-0.4 0.4-0.5 1-0.3 1.8l2.4 10.1c0.1 0.5-0.2 1-0.7 1.1-0.5 0.1-0.9-0.2-1-0.7l-2.4-10.1c-0.2-1-0.1-1.9 0.2-2.7 0.2-0.2 0.1-0.5-0.2-0.5l-2.9-0.5c-0.3-0.1-0.7-0.1-1 0q-0.3 0.1-0.5 0.4c-0.4 0.4-0.5 1-0.3 1.8l2.3 10.1c0.1 0.5-0.2 1-0.6 1.1-0.5 0.1-1-0.2-1.1-0.7l-2.3-10.1c-0.3-1-0.2-1.9 0.2-2.7 0.2-0.3 0.1-0.5-0.2-0.5l-2.9-0.5c-0.3-0.1-0.8-0.1-1 0q-0.3 0.1-0.5 0.3c-0.4 0.4-0.5 1.1-0.4 1.9l2.4 10.1c0.1 0.5-0.2 0.9-0.7 1-0.4 0.1-0.9-0.1-1-0.6l-2.4-10.1c-0.2-1-0.1-2 0.3-2.7 0.1-0.3 0-0.5-0.3-0.6l-2.6-0.4c-0.7-0.1-1.3 0-1.7 0.4-0.3 0.4-0.5 1-0.3 1.7l4.1 17.8c0.5 2 2.4 4.4 4.1 5.4l21.5 11.5c1.6 0.8 2.8 2.8 2.8 4.6v1c0 0.5-0.4 0.9-0.9 0.9q-2.6 0.4-5.3 0.4c-24.8 0-44.9-20.2-44.9-45zm38.5 1.6l3.2-6.7c0.1-0.4 0-0.9-0.4-1.1l-7.3-5c-1.6-1-2.4-2.5-2.3-4.1 0-1.9 1.5-3.8 3.9-5.2 0.1-0.1 13.8-7.9 21.5-19.8 0.3-0.4 0.1-0.8-0.3-1-3.8-1-7.8-1.6-11.9-1.6-23.7 0-42.9 19.2-42.9 42.9 0 23.7 19.2 43 42.9 43q1.7 0 3.4-0.1c0.5-0.1 0.9-0.5 0.7-0.9-0.2-1-0.9-1.8-1.6-2.2l-21.5-11.5c-2.3-1.2-4.5-4.1-5.1-6.6l-4.1-17.8c-0.3-1.4 0-2.7 0.8-3.6 0.8-0.8 2.1-1.2 3.5-0.9l16.3 2.8c0.5 0.1 1-0.2 1.2-0.6zm24.7 37.3c6.9-3.3 12.8-8.3 17.2-14.7 4.9-7.1 7.5-15.5 7.5-24.2 0-18.3-11.5-33.9-27.7-40.1-0.4-0.2-0.9 0-1.2 0.4-1.9 3.1-4.2 5.8-6.5 8.3-0.2 0.1-0.1 0.3 0.1 0.4 0.3 0.2 0.7 0.4 1.1 0.7 0.3 0.3 0.6 0.7 0.7 0.9 0.1 0.2 0.3 0.2 0.4 0 2.6-3.8 5.7-4.7 7.9-3.7 1.9 0.8 3.1 3 2.8 6.3 0 0.2 0.1 0.5 0.3 0.6l1.5 0.7c0.5 0.2 0.7 0.7 0.5 1.2-0.1 0.4-0.5 0.6-0.8 0.6q-0.2 0-0.4-0.1l-1.2-0.5c-0.2-0.1-0.4 0-0.5 0.2q-0.3 1.1-0.9 2.4c-2.8 6.3-6.8 7.8-9.4 6.6-2.6-1.1-4-5-1.5-10.9 0.1-0.2 0.1-0.6 0.1-0.8 0-0.5-0.1-1.3-0.7-2-0.4-0.4-1-0.6-1.4-0.7-0.3 0-0.6 0.1-0.7 0.2-6.8 6.5-13.5 10.3-13.9 10.5-1.8 1-2.8 2.4-2.9 3.6 0 1.1 0.8 1.9 1.5 2.4l7.3 4.9c1.2 0.8 1.6 2.4 1 3.6l-2.9 6.3c-0.2 0.4 0 0.8 0.4 0.8l1.6 0.3c1.1 0.2 2.6 0.9 3.5 1.6l5.7 4.7c1.2 0.9 1.8 2.8 1.3 4.3l-2 6c-0.1 0.4 0.1 1 0.5 1.2l5.4 3.9c2.9 2.1 5.6 7.5 5.6 13.6 0 0.5 0.3 0.7 0.7 0.5zm-10.9-40.4c0 0.5-0.5 1-1 1h-3.6c-0.6 0-1-0.5-1-1 0-0.6 0.4-1 1-1h3.6c0.5 0 1 0.4 1 1zm3.1-15.3c2.3 1.1 5.2-2 6.9-5.7q0 0 0 0 0 0 0 0c1.6-3.6 2-7.8-0.4-8.9-2.4-1.1-5.3 2-6.9 5.7q0 0 0 0 0 0 0 0c-1.6 3.6-2 7.8 0.4 8.9z"/>
			<path id="&lt;Compound Path&gt;" fill-rule="evenodd" class="s1" d="m404.2 105.2v5.2c0 0.5-0.4 0.9-0.9 0.9-0.5 0-0.9-0.4-0.9-0.9v-5.2c0-0.5 0.4-0.9 0.9-0.9 0.5 0 0.9 0.4 0.9 0.9zm0 11.3v24.8c0 0.5-0.4 0.9-0.9 0.9-0.5 0-0.9-0.4-0.9-0.9v-24.8c0-0.5 0.4-0.9 0.9-0.9 0.5 0 0.9 0.4 0.9 0.9zm41.4-11.3v5.2c0 0.5-0.4 0.9-0.9 0.9-0.5 0-0.9-0.4-0.9-0.9v-5.2c0-0.5 0.4-0.9 0.9-0.9 0.5 0 0.9 0.4 0.9 0.9zm0 11.3v24.8c0 0.5-0.4 0.9-0.9 0.9-0.5 0-0.9-0.4-0.9-0.9v-24.8c0-0.5 0.4-0.9 0.9-0.9 0.5 0 0.9 0.4 0.9 0.9zm-54.4 24.8c0 0.5-0.5 0.9-1 0.9-0.5 0-0.9-0.4-0.9-0.9v-16.7c0-0.3-0.2-0.5-0.5-0.5h-21c-0.3 0-0.5 0.2-0.5 0.5v16.7c0 0.5-0.4 0.9-0.9 0.9-0.5 0-0.9-0.4-0.9-0.9v-36.1c0-0.5 0.4-0.9 0.9-0.9 0.5 0 0.9 0.4 0.9 0.9v16.6c0 0.3 0.2 0.5 0.5 0.5h21c0.3 0 0.5-0.2 0.5-0.5v-16.6c0-0.5 0.4-0.9 0.9-0.9 0.5 0 1 0.4 1 0.9zm78-10.8h-13.7c-0.5 0-0.9-0.5-0.9-1 0-0.5 0.4-0.9 0.9-0.9h13.7c0.6 0 1 0.4 1 0.9 0 0.5-0.4 1-1 1zm30.7 11.7h-19.9c-0.5 0-0.9-0.4-0.9-0.9v-36.1c0-0.5 0.4-0.9 0.9-0.9 0.5 0 0.9 0.4 0.9 0.9v34.9c0 0.1 0.1 0.3 0.3 0.3h18.7c0.5 0 0.9 0.4 0.9 0.9 0 0.5-0.4 0.9-0.9 0.9zm-74.1-26c5 0 9.1 4.1 9.1 9.1v7.7c0 5.1-4.1 9.2-9.1 9.2h-0.6c-3 0-5.6-1.4-7.4-3.5-0.4-0.4-0.6-0.3-0.6 0.2v2.4c0 0.5-0.4 0.9-0.9 0.9-0.5 0-0.9-0.4-0.9-0.9v-36.1c0-0.5 0.4-0.9 0.9-0.9 0.5 0 0.9 0.4 0.9 0.9v13.6c0 0.6 0.3 0.7 0.6 0.3 1.7-1.8 4.1-2.9 6.7-2.9zm7.3 9.1c0-4-3.2-7.3-7.3-7.3h-1.3c-4 0-7.3 3.3-7.3 7.3v6.7c0 4.6 3.6 8.4 8 8.4h0.6c4.1 0 7.3-3.3 7.3-7.4zm94.3 15.4c0.3 0.4 0.3 1-0.1 1.3-0.4 0.3-1 0.2-1.3-0.1q0-0.1 0-0.1c-0.1-0.1-0.9-1.1-1.6-2.8-0.1-0.2-0.3-0.2-0.5 0-1.6 2.3-4.4 3.9-7.7 3.9h-3.3c-3.9 0-7.1-3.2-7.1-7.1v-2.1c0-3.9 3.2-7.1 7.1-7.1h10.1c0.3 0 0.5-0.2 0.5-0.5v-1.8c0-3.4-2.3-5.9-6-6.3-5.1-0.6-8.6 2.1-8.7 2.1-0.4 0.4-0.9 0.3-1.2-0.1-0.3-0.4-0.3-1 0.1-1.3 0.2-0.1 4.1-3.1 10-2.5 4.6 0.5 7.7 3.7 7.7 8.1v10.4c0 3.5 2 6 2 6zm-11.2 0.4c4.1 0 7.3-3 7.3-6.6v-5.6c0-0.2-0.2-0.5-0.5-0.5h-10.1c-2.9 0-5.3 2.4-5.3 5.3v2.1c0 2.9 2.4 5.3 5.3 5.3zm29.4-24.9c5 0 9.1 4.1 9.1 9.1v7.7c0 5.1-4.1 9.2-9.1 9.2h-0.7c-2.9 0-5.5-1.4-7.3-3.5-0.4-0.4-0.6-0.3-0.6 0.2v2.4c0 0.5-0.4 0.9-0.9 0.9-0.5 0-0.9-0.4-0.9-0.9v-36.1c0-0.5 0.4-0.9 0.9-0.9 0.5 0 0.9 0.4 0.9 0.9v13.6c0 0.6 0.2 0.7 0.6 0.3 1.7-1.8 4.1-2.9 6.7-2.9zm7.3 9.1c0-4-3.3-7.3-7.3-7.3h-1.3c-4 0-7.3 3.3-7.3 7.3v6.7c0 4.6 3.6 8.4 8 8.4h0.6c4 0 7.3-3.3 7.3-7.4z"/>
		</g>
		<path id="&lt;Path&gt;" class="s2" d="m699.5-266.1h-841.5v-48.2h841.5z"/>
		<text id="WATASHEET
" style="transform: matrix(1,0,0,1,13.967,-287.823)" >
			<tspan x="0" y="0" class="t3" dx="0 2 2 2 2 2 2 2 2 2" >WATASHEET
</tspan>
		</text>
		<path id="&lt;Path&gt;" class="s4" d="m133.7-281v-22.4"/>
		<text id="KNOW MY SELF
" style="transform: matrix(1,0,0,1,154.334,-287.488)" >
			<tspan x="0" y="0" class="t3" dx="0 2 2 2 2 2 2 2 2 2 2 2 2" >KNOW MY SELF
</tspan>
		</text>
		<g id="&lt;Group&gt;">
			<path id="&lt;Compound Path&gt;" fill-rule="evenodd" class="s5" d="m281 259v5.2c0 2.7-2.2 4.9-4.8 4.9h-0.5c-2.7 0-4.8-2.2-4.8-4.9v-5.2c0-2.6 2.1-4.8 4.8-4.8h0.5c2.6 0 4.8 2.2 4.8 4.8zm-5.3-4.1c-2.3 0-4.2 1.8-4.2 4.1v2c0 0.1 0.1 0.2 0.2 0.2h8.4c0.2 0 0.2-0.1 0.2-0.2v-2c0-2.3-1.8-4.1-4.1-4.1zm0.4 13.5c2.3 0 4.2-1.9 4.2-4.2v-2.2c0-0.1-0.1-0.2-0.2-0.2h-8.4c-0.1 0-0.2 0.1-0.2 0.2v2.2c0 2.3 1.9 4.2 4.2 4.2zm20.4-13.6h4.6c0.1 0 0.3 0.1 0.3 0.3 0 0.1-0.2 0.3-0.3 0.3h-2.2c-0.1 0-0.2 0-0.2 0.2-0.1 0.6-0.2 2.2-0.6 4.1 0 0.1 0.1 0.2 0.2 0.2h1.7c0.5 0 1 0.5 1 1.1v6.5c0 0.6-0.5 1-1 1h-1.6c-0.6 0-1-0.4-1-1v-4.3q-0.1-0.3-0.2 0c-0.4 1.3-0.9 2.5-1.5 3.8-0.1 0.1-0.3 0.2-0.5 0.1-0.1-0.1-0.2-0.3-0.1-0.4 2.4-4.4 2.9-9.8 3-11.1 0-0.2-0.1-0.2-0.2-0.2h-1.4c-0.2 0-0.4-0.2-0.4-0.3 0-0.2 0.2-0.3 0.4-0.3zm3.9 6.2c0-0.3-0.2-0.5-0.4-0.5h-1.9c-0.1 0-0.1 0.1-0.1 0.2v6.8c0 0.2 0.2 0.4 0.4 0.4h1.6c0.2 0 0.4-0.2 0.4-0.4zm7.5-0.6h1.3c0.1 0 0.3 0.2 0.3 0.3 0 0.2-0.2 0.4-0.3 0.4h-1.3c-0.1 0-0.1 0-0.1 0.1v7.3c0 0.2-0.2 0.3-0.3 0.3-0.2 0-0.4-0.1-0.4-0.3v-7.3c0-0.1 0-0.1-0.1-0.1h-2.2c-0.1 0-0.2 0-0.2 0.1-0.3 5.1-2.4 7.2-2.4 7.3-0.2 0.1-0.4 0.1-0.5 0-0.1-0.2-0.1-0.4 0-0.5 0 0 0.6-0.5 1.2-1.8 0.4-1 0.9-2.6 1.1-5 0-0.1-0.1-0.1-0.2-0.1h-1.6c-0.2 0-0.3-0.2-0.3-0.4 0-0.1 0.1-0.3 0.3-0.3h1.6c0.1 0 0.2 0 0.2-0.1q0-0.1 0-0.2v-4.5c0-0.1-0.1-0.2-0.2-0.2h-1.1c-0.2 0-0.3-0.2-0.3-0.3 0-0.2 0.1-0.3 0.3-0.3h5.9c0.2 0 0.3 0.1 0.3 0.3 0 0.1-0.1 0.3-0.3 0.3h-0.7c-0.1 0-0.1 0.1-0.1 0.2v4.7c0 0.1 0 0.1 0.1 0.1zm-3.1 0h2.2c0.1 0 0.1 0 0.1-0.1v-4.7c0-0.1 0-0.2-0.1-0.2h-2.2c-0.1 0-0.2 0.1-0.2 0.2v4.5q0 0.1 0 0.2c0 0.1 0.1 0.1 0.2 0.1zm-14.7 4.3c0 0 0 0.2 0.1 0.2l1.3 1.1c0.2 0.1 0.2 0.3 0.1 0.5-0.2 0.1-0.4 0.1-0.5 0l-3.6-2.8c-0.1-0.2-0.1-0.4 0-0.5 0.1-0.2 0.3-0.2 0.4-0.1l1.5 1.2c0 0 0.2 0 0.2-0.1l2.6-3.7c0.2-0.4 0.3-0.7 0.2-0.9-0.1-0.3-0.5-0.4-0.9-0.4h-3.5c-0.1 0-0.3 0.1-0.3 0.1-0.8 1.6-2.1 3.4-3.9 4.7-0.1 0.2-0.3 0.1-0.4 0-0.1-0.2-0.1-0.4 0-0.5 3.4-2.6 4.9-7.2 4.9-7.3 0.1-0.1 0.3-0.2 0.5-0.2 0.1 0.1 0.2 0.3 0.2 0.4-0.1 0.1-0.3 0.9-0.8 2 0 0 0 0.1 0.1 0.1h3.2c0.7 0 1.2 0.3 1.5 0.7 0.2 0.5 0.1 1.1-0.3 1.7zm21.9-9.4h5.3c0.1 0 0.2-0.1 0.2-0.2v-1.6c0-0.1 0.1-0.3 0.3-0.3 0.2 0 0.3 0.2 0.3 0.3v1.6c0 0.1 0.1 0.2 0.2 0.2h5.3c0.2 0 0.3 0.2 0.3 0.3v2.1c0 0.2-0.1 0.3-0.3 0.3-0.2 0-0.3-0.1-0.3-0.3v-1.6c0-0.1-0.1-0.2-0.2-0.2h-3.4c-0.1 0-0.1 0.1-0.1 0.2v4.3q0 0.1 0.1 0.1h3.4c0.2 0 0.3 0.1 0.3 0.3 0 0.2-0.1 0.3-0.3 0.3h-3.9c-0.1 0-0.3-0.1-0.3-0.3v-4.7c0-0.1 0-0.2-0.1-0.2h-2.1c-0.1 0-0.2 0.1-0.2 0.2v1.1c0 4.2-3.9 4.3-3.9 4.3-0.2 0-0.4-0.2-0.4-0.4 0-0.1 0.2-0.3 0.4-0.3 0.1 0 3.3 0 3.3-3.6v-1.1c0-0.1-0.1-0.2-0.2-0.2h-3.2c-0.1 0-0.2 0.1-0.2 0.2v1.6c0 0.2-0.1 0.3-0.3 0.3-0.2 0-0.3-0.1-0.3-0.3v-2.1c0-0.1 0.1-0.3 0.3-0.3zm8.7 12.5h3.3c0.2 0 0.3 0.2 0.3 0.3 0 0.2-0.1 0.3-0.3 0.3h-3.3c-0.5 0-0.9-0.2-1.2-0.5-0.2-0.4-0.3-0.8-0.1-1.3l0.6-2q0.1-0.4-0.1-0.7-0.2-0.3-0.7-0.3h-2.1c-0.1 0-0.2 0-0.2 0.1-1 3.7-4.8 4.9-4.8 4.9-0.2 0-0.3-0.1-0.4-0.2 0-0.2 0.1-0.4 0.2-0.4 0.2-0.1 3.4-1 4.3-4.3 0.1-0.1 0-0.1-0.1-0.1h-3.3c-0.1 0-0.3-0.2-0.3-0.3 0-0.2 0.2-0.4 0.3-0.4h3.4c0.1 0 0.2 0 0.2-0.1q0.1-0.5 0.1-1v-1.2c0-0.2 0.1-0.3 0.3-0.3 0.2 0 0.3 0.1 0.3 0.3v1.2q0 0.5-0.1 1c0 0.1 0.1 0.1 0.2 0.1h2c0.5 0 0.9 0.2 1.2 0.6 0.3 0.3 0.3 0.8 0.2 1.3l-0.7 2q-0.1 0.4 0.1 0.7 0.3 0.3 0.7 0.3zm10.4-5h-3.1c-0.1 0-0.2 0-0.2 0.1-0.3 3.7-1 5.4-1.1 5.5 0 0.2-0.2 0.2-0.4 0.2-0.1-0.1-0.2-0.3-0.1-0.4 0-0.1 1.1-2.8 1.1-8.5v-1.7c0-0.2 0.2-0.3 0.3-0.3h3.5c0.6 0 1.1 0.5 1.1 1.1v2.9c0 0.6-0.5 1.1-1.1 1.1zm0.5-4c0-0.3-0.2-0.5-0.5-0.5h-3c-0.1 0-0.2 0.1-0.2 0.2v1.2q0 1.2 0 2.3c0 0.1 0.1 0.2 0.2 0.2h3c0.3 0 0.5-0.2 0.5-0.5zm-4.8-3.6c0-0.2 0.1-0.3 0.3-0.3h5.3c0.2 0 0.3 0.1 0.3 0.3 0 0.1-0.1 0.3-0.3 0.3h-5.3c-0.2 0-0.3-0.2-0.3-0.3zm12.6 5.2h-1.2c-0.2 0-0.2 0.1-0.2 0.2v8c0 0.1-0.2 0.3-0.3 0.3-0.2 0-0.3-0.2-0.3-0.3v-8c0-0.1-0.1-0.2-0.2-0.2h-2.3c-0.1 0-0.2 0.1-0.2 0.2-0.1 5.6-2.4 7.9-2.5 8-0.1 0.1-0.3 0.1-0.4-0.1-0.1-0.1-0.1-0.3 0-0.4 0 0 2.3-2.3 2.3-8v-2.9c0-1 0.8-1.9 1.7-2l3-0.3c0.2-0.1 0.4 0.1 0.4 0.2 0 0.2-0.1 0.3-0.3 0.4l-3 0.3c-0.6 0.1-1.2 0.7-1.2 1.4v2.5c0 0.1 0.1 0.1 0.2 0.1h4.5c0.2 0 0.3 0.2 0.3 0.3 0 0.2-0.1 0.3-0.3 0.3z"/>
			<path id="&lt;Compound Path&gt;" fill-rule="evenodd" class="s5" d="m244.2 261.4c0-5.8 4.7-10.6 10.5-10.6 5.8 0 10.5 4.8 10.5 10.6 0 4.2-2.5 8.1-6.5 9.7q-0.1 0-0.3 0-0.1-0.1-0.1-0.3v-0.7c0-1-0.5-2.2-1.1-2.6l-1.9-1.4c-0.3-0.1-0.6-0.5-0.6-0.9l-0.3-1c0-0.1 0.1-0.3 0.3-0.3 0.1 0 0.3 0.1 0.3 0.2l0.2 1c0.1 0.1 0.2 0.4 0.3 0.5 0.1 0.1 0.2 0 0.2-0.1l0.4-1.1c0.1-0.2 0-0.4-0.1-0.5l-1.3-1.1c-0.2-0.1-0.4-0.2-0.6-0.2l-0.8-0.1q0 0-0.1 0-0.1 0.2-0.1 0.4l0.6 2.4c0 0.1-0.1 0.2-0.2 0.3-0.1 0-0.3-0.1-0.3-0.2l-0.6-2.4q0-0.3 0.1-0.6 0 0-0.1-0.1l-0.6-0.1c-0.1 0-0.2 0-0.2 0q-0.1 0-0.1 0.1-0.1 0.1-0.1 0.4l0.6 2.3c0 0.1-0.1 0.3-0.2 0.3-0.1 0-0.3 0-0.3-0.2l-0.6-2.3q0-0.4 0.1-0.6 0-0.1-0.1-0.1l-0.6-0.1c-0.1-0.1-0.2-0.1-0.2 0q-0.1 0-0.1 0-0.1 0.1-0.1 0.4l0.6 2.4c0 0.1-0.1 0.2-0.2 0.3-0.1 0-0.3-0.1-0.3-0.2l-0.5-2.4q-0.1-0.3 0-0.6 0-0.1-0.1-0.1l-0.5-0.1q-0.3 0-0.4 0.1-0.1 0.1 0 0.3l0.9 4.2c0.1 0.4 0.6 1 1 1.2l5 2.6c0.3 0.2 0.6 0.7 0.6 1.2v0.2c0 0.1-0.1 0.3-0.2 0.3q-0.6 0.1-1.3 0.1c-5.8 0-10.5-4.8-10.5-10.5zm8.7 0.4c0.1 0 0.3-0.1 0.3-0.1l0.7-1.6c0.1 0 0-0.1 0-0.2l-1.7-1.1c-0.4-0.3-0.6-0.6-0.6-1 0-0.5 0.4-0.9 0.9-1.3 0.1 0 3.2-1.8 5-4.5 0-0.1 0-0.2-0.1-0.2q-1.3-0.4-2.7-0.4c-5.4 0-9.9 4.5-9.9 10 0 5.4 4.5 9.9 9.9 9.9q0.4 0 0.8 0c0.1-0.1 0.2-0.1 0.1-0.2 0-0.2-0.2-0.4-0.3-0.4l-5-2.7c-0.6-0.3-1.1-1-1.2-1.6l-1-4.1c-0.1-0.4 0-0.7 0.2-0.9 0.2-0.2 0.5-0.3 0.9-0.3zm3.7 2.8l-0.4 1.3c0 0.1 0 0.3 0.1 0.3l1.2 0.9c0.7 0.5 1.3 1.8 1.3 3.1 0 0.1 0.1 0.2 0.2 0.1 3.4-1.6 5.6-5.1 5.6-8.9 0-4.2-2.6-7.8-6.3-9.3-0.1 0-0.2 0-0.3 0.1q-0.7 1-1.4 1.9-0.1 0 0 0.1 0.1 0 0.1 0.1 0.1 0.1 0.2 0.1 0 0.1 0.1 0c0.6-0.8 1.3-1 1.8-0.8 0.5 0.2 0.8 0.7 0.7 1.5q0 0.1 0.1 0.2l0.3 0.1c0.2 0.1 0.2 0.2 0.2 0.4-0.1 0.1-0.3 0.2-0.4 0.1l-0.2-0.1q-0.1 0-0.1 0.1-0.1 0.2-0.2 0.5c-0.7 1.5-1.6 1.8-2.3 1.5-0.6-0.2-1-1.1-0.4-2.6 0 0 0.1-0.1 0.1-0.2 0-0.1-0.1-0.2-0.2-0.3 0-0.1-0.2-0.2-0.2-0.2-0.1 0-0.2 0-0.2 0.1-1.6 1.4-3.1 2.3-3.2 2.4-0.4 0.2-0.7 0.5-0.7 0.8 0 0.2 0.2 0.4 0.3 0.5l1.7 1.1c0.3 0.2 0.4 0.6 0.3 0.9l-0.7 1.4c0 0.1 0 0.2 0.1 0.2l0.3 0.1c0.3 0 0.7 0.2 0.9 0.3l1.3 1.1c0.3 0.3 0.4 0.7 0.3 1.1zm-0.1-3.6c0 0.2-0.2 0.3-0.3 0.3h-0.9c-0.1 0-0.3-0.1-0.3-0.3 0-0.1 0.2-0.3 0.3-0.3h0.9c0.1 0 0.3 0.2 0.3 0.3zm0.6-3.6c0.4 0.2 1.1-0.2 1.6-1.3 0.5-1 0.3-1.8-0.1-2-0.4-0.1-1 0.2-1.5 1.3-0.5 1.1-0.4 1.9 0 2z"/>
		</g>
		<g id="&lt;Group&gt;">
			<path id="&lt;Compound Path&gt;" fill-rule="evenodd" class="s6" d="m-114.7-292.2c0-5.3 4.4-9.7 9.7-9.7 5.4 0 9.7 4.4 9.7 9.7 0 3.9-2.4 7.5-6 9q-0.2 0-0.3-0.1-0.1 0-0.1-0.2v-0.7c0-0.8-0.5-1.9-1-2.3l-1.8-1.3c-0.2-0.2-0.5-0.5-0.6-0.8l-0.2-0.9c0-0.2 0.1-0.3 0.2-0.4 0.2 0 0.3 0.1 0.4 0.2l0.2 1c0 0.1 0.1 0.3 0.3 0.4 0 0.1 0.1 0.1 0.1 0l0.4-1.1c0-0.1 0-0.3-0.1-0.4l-1.3-1c-0.1-0.1-0.3-0.2-0.5-0.3l-0.7-0.1q-0.1 0-0.1 0.1-0.1 0.1-0.1 0.3l0.5 2.2c0.1 0.1 0 0.3-0.1 0.3-0.2 0-0.3-0.1-0.3-0.2l-0.5-2.2q-0.1-0.3 0-0.5 0-0.1-0.1-0.1l-0.5-0.1c-0.1 0-0.2 0-0.2 0q-0.1 0-0.1 0-0.1 0.2 0 0.4l0.5 2.2c0 0.1-0.1 0.2-0.2 0.3-0.1 0-0.3-0.1-0.3-0.2l-0.5-2.2q-0.1-0.3 0-0.5 0.1-0.1 0-0.1l-0.6-0.2c-0.1 0-0.2 0-0.2 0.1q0 0-0.1 0-0.1 0.1 0 0.4l0.5 2.1c0 0.2-0.1 0.3-0.2 0.3-0.1 0-0.2 0-0.3-0.2l-0.5-2.1q0-0.3 0-0.6 0.1-0.1 0-0.1l-0.5-0.1q-0.2 0-0.3 0.1-0.1 0.1-0.1 0.3l0.9 3.8c0.1 0.4 0.5 0.9 0.9 1.1l4.6 2.5c0.3 0.2 0.6 0.6 0.6 1v0.3c0 0.1-0.1 0.2-0.2 0.2q-0.6 0.1-1.2 0.1c-5.3 0-9.7-4.4-9.7-9.7zm8.1 0.4c0 0 0.2 0 0.2-0.1l0.7-1.4c0-0.1 0-0.2-0.1-0.2l-1.6-1.1c-0.3-0.2-0.5-0.5-0.5-0.9 0-0.4 0.3-0.9 0.9-1.2 0 0 2.9-1.6 4.5-4.1 0.1-0.1 0.1-0.2 0-0.2q-1.2-0.4-2.5-0.4c-5 0-9.1 4.1-9.1 9.2 0 5 4.1 9.2 9.1 9.2q0.4 0 0.7-0.1c0.1 0 0.2-0.1 0.1-0.2 0-0.1-0.2-0.3-0.3-0.3l-4.6-2.5c-0.5-0.3-1-0.9-1.1-1.4l-0.9-3.9c-0.1-0.3 0-0.6 0.2-0.8 0.2-0.2 0.5-0.3 0.8-0.2zm3.4 2.5l-0.4 1.3c0 0.1 0 0.2 0.1 0.2l1.2 0.9c0.6 0.4 1.2 1.6 1.2 2.8q0 0.2 0.1 0.1c3.2-1.5 5.2-4.7 5.2-8.2 0-3.9-2.4-7.2-5.8-8.5-0.1-0.1-0.2 0-0.3 0q-0.6 1-1.3 1.7-0.1 0.1 0 0.1 0.1 0.1 0.2 0.1 0 0.1 0.1 0.2 0 0 0.1 0c0.6-0.8 1.2-1 1.7-0.8 0.4 0.2 0.7 0.7 0.6 1.4q0 0.1 0.1 0.1l0.3 0.2c0.1 0 0.2 0.2 0.1 0.3 0 0.1-0.2 0.2-0.3 0.1l-0.2-0.1q-0.1 0-0.1 0.1-0.1 0.2-0.2 0.5c-0.6 1.3-1.5 1.7-2.1 1.4-0.6-0.3-0.9-1.1-0.4-2.4 0.1 0 0.1-0.1 0.1-0.2 0-0.1 0-0.2-0.1-0.3-0.1-0.1-0.2-0.2-0.3-0.2-0.1 0-0.1 0-0.2 0.1-1.4 1.3-2.8 2.2-2.9 2.2-0.4 0.2-0.6 0.5-0.6 0.7 0 0.2 0.1 0.4 0.3 0.5l1.6 1c0.2 0.2 0.3 0.6 0.2 0.9l-0.6 1.3c-0.1 0.1 0 0.1 0.1 0.2h0.2c0.3 0 0.6 0.2 0.8 0.3l1.2 1c0.3 0.3 0.5 0.7 0.3 1zm-0.1-3.2c0 0.1-0.1 0.2-0.3 0.2h-0.8c-0.1 0-0.2-0.1-0.2-0.2 0-0.2 0.1-0.3 0.2-0.3h0.8c0.2 0 0.3 0.1 0.3 0.3zm0.6-3.4c0.4 0.2 1-0.2 1.4-1.2 0.5-1 0.3-1.6 0-1.8-0.4-0.2-1 0.2-1.4 1.2-0.5 1-0.4 1.7 0 1.8z"/>
			<path id="&lt;Compound Path&gt;" fill-rule="evenodd" class="s6" d="m-77.1-298v1.8c0 0.1-0.1 0.3-0.3 0.3-0.2 0-0.3-0.2-0.3-0.3v-1.8c0-0.2 0.1-0.3 0.3-0.3 0.2 0 0.3 0.1 0.3 0.3zm0 3.8v8.3c0 0.2-0.1 0.3-0.3 0.3-0.2 0-0.3-0.1-0.3-0.3v-8.3c0-0.2 0.1-0.3 0.3-0.3 0.2 0 0.3 0.1 0.3 0.3zm13.9-3.8v1.8c0 0.1-0.1 0.3-0.3 0.3-0.1 0-0.3-0.2-0.3-0.3v-1.8c0-0.2 0.2-0.3 0.3-0.3 0.2 0 0.3 0.1 0.3 0.3zm0 3.8v8.3c0 0.2-0.1 0.3-0.3 0.3-0.1 0-0.3-0.1-0.3-0.3v-8.3c0-0.2 0.2-0.3 0.3-0.3 0.2 0 0.3 0.1 0.3 0.3zm-18.3 8.3c0 0.2-0.1 0.3-0.3 0.3-0.2 0-0.3-0.1-0.3-0.3v-5.6c0-0.1-0.1-0.1-0.2-0.1h-7c-0.1 0-0.2 0-0.2 0.1v5.6c0 0.2-0.1 0.3-0.3 0.3-0.2 0-0.3-0.1-0.3-0.3v-12.1c0-0.2 0.1-0.3 0.3-0.3 0.2 0 0.3 0.1 0.3 0.3v5.6c0 0.1 0.1 0.1 0.2 0.1h7c0.1 0 0.2 0 0.2-0.1v-5.6c0-0.2 0.1-0.3 0.3-0.3 0.2 0 0.3 0.1 0.3 0.3zm26.3-3.6h-4.7c-0.1 0-0.3-0.2-0.3-0.3 0-0.2 0.2-0.4 0.3-0.4h4.7c0.1 0 0.3 0.2 0.3 0.4 0 0.1-0.2 0.3-0.3 0.3zm10.2 3.9h-6.6c-0.2 0-0.3-0.1-0.3-0.3v-12.1c0-0.2 0.1-0.3 0.3-0.3 0.1 0 0.3 0.1 0.3 0.3v11.7q0 0.1 0.1 0.1h6.2c0.2 0 0.3 0.1 0.3 0.3 0 0.2-0.1 0.3-0.3 0.3zm-24.8-8.7c1.7 0 3 1.3 3 3v2.6c0 1.7-1.3 3.1-3 3.1h-0.3c-0.9 0-1.8-0.5-2.4-1.2q-0.2-0.2-0.2 0.1v0.8c0 0.2-0.2 0.3-0.3 0.3-0.2 0-0.3-0.1-0.3-0.3v-12.1c0-0.2 0.1-0.3 0.3-0.3 0.1 0 0.3 0.1 0.3 0.3v4.6q0 0.2 0.2 0c0.5-0.6 1.3-0.9 2.2-0.9zm2.5 3c0-1.3-1.1-2.4-2.5-2.4h-0.4c-1.4 0-2.5 1.1-2.5 2.4v2.3c0 1.5 1.2 2.8 2.7 2.8h0.2c1.4 0 2.5-1.1 2.5-2.5zm31.7 5.2c0.1 0.1 0 0.3-0.1 0.4-0.1 0.1-0.3 0.1-0.4 0q0 0 0 0c-0.1-0.1-0.3-0.4-0.5-1q-0.1-0.1-0.2 0c-0.5 0.8-1.5 1.3-2.6 1.3h-1.1c-1.3 0-2.4-1-2.4-2.4v-0.7c0-1.3 1.1-2.3 2.4-2.3h3.4c0.1 0 0.2-0.1 0.2-0.2v-0.6c0-1.2-0.8-2-2.1-2.1-1.7-0.2-2.9 0.7-2.9 0.7-0.1 0.1-0.3 0.1-0.4-0.1-0.1-0.1-0.1-0.3 0-0.4 0.1 0 1.4-1.1 3.4-0.8 1.5 0.1 2.6 1.2 2.6 2.7v3.5c0 1.1 0.6 2 0.7 2zm-3.8 0.1c1.4 0 2.5-1 2.5-2.2v-1.9c0-0.1-0.1-0.1-0.2-0.1h-3.4c-1 0-1.8 0.8-1.8 1.7v0.7c0 1 0.8 1.8 1.8 1.8zm9.9-8.3c1.7 0 3 1.3 3 3v2.6c0 1.7-1.3 3.1-3 3.1h-0.3c-0.9 0-1.8-0.5-2.4-1.2q-0.2-0.2-0.2 0.1v0.8c0 0.1-0.2 0.3-0.3 0.3-0.2 0-0.3-0.2-0.3-0.3v-12.1c0-0.2 0.1-0.3 0.3-0.3 0.1 0 0.3 0.1 0.3 0.3v4.5q0 0.3 0.2 0.1c0.5-0.6 1.3-0.9 2.2-0.9zm2.5 3c0-1.3-1.1-2.4-2.5-2.4h-0.4c-1.4 0-2.5 1.1-2.5 2.4v2.3c0 1.5 1.2 2.8 2.7 2.8h0.2c1.4 0 2.5-1.1 2.5-2.5z"/>
		</g>
	</g>
</svg>