<svg version="1.2" xmlns="http://www.w3.org/2000/svg" viewBox="0 0 266 61" width="266" height="61">
	<title>システム用logo Hibi-Lab [更新済み]-ai-svg</title>
	<style>
		.s0 { fill: #fff } 
	</style>
	<g id="Layer">
		<path id="Layer" fill-rule="evenodd" class="s0" d="m2.2 31.4c0-15.9 12.9-28.9 28.8-28.9 15.9 0 28.9 13 28.9 28.9 0 11.7-7.1 22.2-18 26.7-0.3 0.1-0.5 0.1-0.8-0.1-0.2-0.1-0.3-0.4-0.3-0.7v-2c0-2.6-1.4-5.8-3-7l-5.3-3.8c-0.7-0.5-1.5-1.6-1.7-2.5l-0.6-2.7c-0.1-0.4 0.2-0.8 0.6-0.9 0.4-0.1 0.9 0.1 1 0.6l0.6 2.7c0.1 0.4 0.4 0.9 0.8 1.3 0.2 0.2 0.5 0.2 0.6-0.1l1-3.2c0.2-0.4 0-1-0.3-1.3l-3.7-2.9c-0.4-0.3-1.1-0.7-1.6-0.7l-2-0.4q-0.3 0.1-0.4 0.2c-0.2 0.2-0.3 0.6-0.2 1.1l1.5 6.4c0.1 0.4-0.1 0.8-0.5 0.9-0.4 0.1-0.7-0.2-0.8-0.5l-1.5-6.5q-0.2-0.9 0.1-1.6c0-0.2-0.1-0.3-0.2-0.4l-1.8-0.3c-0.2 0-0.4 0-0.5 0.1q-0.1 0-0.2 0.1c-0.2 0.2-0.3 0.6-0.2 1.1l1.5 6.4c0.1 0.4-0.1 0.8-0.5 0.9-0.4 0-0.8-0.2-0.8-0.6l-1.5-6.4q-0.2-0.9 0.1-1.6c0-0.2-0.1-0.3-0.2-0.4l-1.8-0.3c-0.2 0-0.4 0-0.5 0q-0.1 0.1-0.2 0.2c-0.2 0.2-0.3 0.6-0.2 1l1.5 6.5c0.1 0.4-0.1 0.7-0.5 0.8-0.4 0.1-0.8-0.1-0.8-0.5l-1.5-6.4q-0.2-0.9 0-1.7c0.1-0.1 0-0.3-0.1-0.3l-1.5-0.2c-0.4-0.1-0.8 0-0.9 0.2-0.2 0.2-0.3 0.5-0.2 0.9l2.6 11.4c0.3 1.2 1.5 2.7 2.6 3.3l13.7 7.3c1 0.6 1.8 1.9 1.8 3.1v0.6c0 0.4-0.3 0.8-0.7 0.8q-1.7 0.2-3.4 0.2c-15.9 0-28.8-12.9-28.8-28.8zm23.9 1.2c0.3 0 0.6-0.1 0.7-0.4l2-4.2c0.1-0.1 0-0.4-0.1-0.5l-4.8-3.1c-1-0.7-1.6-1.7-1.5-2.8 0-1.3 1-2.6 2.6-3.5 0.1 0 8.6-4.9 13.5-12.4 0.2-0.2 0.1-0.5-0.2-0.6-2.3-0.6-4.7-1-7.3-1-15 0-27.2 12.3-27.2 27.3 0 15 12.2 27.2 27.2 27.2q1 0 2 0c0.3-0.1 0.5-0.3 0.4-0.6-0.1-0.4-0.5-0.9-0.9-1.1l-13.7-7.3c-1.5-0.8-2.9-2.7-3.3-4.4l-2.7-11.3c-0.2-1 0-1.9 0.6-2.4 0.6-0.6 1.4-0.9 2.4-0.7zm10.2 7.6l-1.2 3.6c-0.1 0.3 0.1 0.7 0.3 0.8l3.4 2.4c1.9 1.4 3.6 4.9 3.6 8.6 0 0.3 0.2 0.4 0.5 0.3 9.4-4.6 15.4-14 15.4-24.5 0-11.6-7.3-21.5-17.4-25.4-0.3-0.1-0.6 0-0.8 0.2-1.2 1.8-2.5 3.5-3.9 5-0.1 0.1-0.1 0.3 0 0.4q0.2 0.1 0.5 0.3 0.2 0.2 0.3 0.4c0.2 0.1 0.3 0.1 0.4 0 1.7-2.3 3.6-2.9 5-2.2 1.2 0.5 2.1 1.9 1.9 4 0 0.2 0.1 0.4 0.3 0.4l0.8 0.4c0.4 0.2 0.6 0.6 0.4 1-0.2 0.4-0.6 0.6-1 0.4l-0.6-0.2c-0.1-0.1-0.3 0-0.3 0.1q-0.2 0.7-0.6 1.4c-1.8 4.1-4.4 5.1-6.2 4.3-1.7-0.8-2.7-3.3-1.1-7.1 0.1-0.2 0.2-0.5 0.2-0.6 0-0.3-0.1-0.7-0.4-1-0.2-0.3-0.5-0.4-0.8-0.5-0.1 0-0.4 0.1-0.5 0.2-4.3 4-8.5 6.5-8.8 6.6-1 0.6-1.7 1.4-1.7 2.2 0 0.6 0.4 1.1 0.8 1.3l4.7 3.2c0.8 0.5 1.1 1.6 0.7 2.5l-1.8 3.8c-0.1 0.2 0 0.5 0.3 0.5l0.8 0.2c0.7 0.1 1.7 0.6 2.3 1l3.7 3c0.8 0.7 1.2 2 0.8 3zm-0.4-9.8c0 0.4-0.4 0.8-0.8 0.8h-2.3c-0.5 0-0.8-0.4-0.8-0.8 0-0.5 0.3-0.8 0.8-0.8h2.3c0.4 0 0.8 0.3 0.8 0.8zm1.8-9.9c1.1 0.5 2.9-0.6 4.3-3.5 1.3-3 0.9-5.1-0.2-5.5-1.1-0.5-2.9 0.5-4.2 3.5-1.3 3-0.9 5 0.1 5.5z"/>
		<path id="Layer" fill-rule="evenodd" class="s0" d="m114 14.1v5.3c0 0.5-0.4 0.9-0.9 0.9-0.5 0-0.9-0.4-0.9-0.9v-5.3c0-0.5 0.4-0.9 0.9-0.9 0.5 0 0.9 0.4 0.9 0.9zm0 11.3v24.8c0 0.5-0.4 0.9-0.9 0.9-0.5 0-0.9-0.4-0.9-0.9v-24.8c0-0.5 0.4-0.9 0.9-0.9 0.5 0 0.9 0.4 0.9 0.9zm41.5-11.3v5.3c0 0.5-0.4 0.9-0.9 0.9-0.5 0-0.9-0.4-0.9-0.9v-5.3c0-0.5 0.4-0.9 0.9-0.9 0.5 0 0.9 0.4 0.9 0.9zm0 11.3v24.8c0 0.5-0.4 0.9-0.9 0.9-0.5 0-0.9-0.4-0.9-0.9v-24.8c0-0.5 0.4-0.9 0.9-0.9 0.5 0 0.9 0.4 0.9 0.9zm-54.5 24.8c0 0.5-0.4 0.9-0.9 0.9-0.5 0-0.9-0.4-0.9-0.9v-16.6c0-0.3-0.3-0.5-0.6-0.5h-21c-0.2 0-0.5 0.2-0.5 0.5v16.6c0 0.5-0.4 0.9-0.9 0.9-0.5 0-0.9-0.4-0.9-0.9v-36.1c0-0.5 0.4-0.9 0.9-0.9 0.5 0 0.9 0.4 0.9 0.9v16.6c0 0.3 0.3 0.5 0.5 0.5h21c0.3 0 0.6-0.2 0.6-0.5v-16.6c0-0.5 0.4-0.9 0.9-0.9 0.5 0 0.9 0.4 0.9 0.9zm78.1-10.8h-13.8c-0.5 0-0.9-0.4-0.9-0.9 0-0.5 0.4-0.9 0.9-0.9h13.8c0.5 0 0.9 0.4 0.9 0.9 0 0.5-0.4 0.9-0.9 0.9zm30.6 11.7h-19.9c-0.5 0-0.9-0.4-0.9-0.9v-36.1c0-0.5 0.4-0.9 0.9-0.9 0.5 0 0.9 0.4 0.9 0.9v34.9q0 0.3 0.3 0.3h18.7c0.5 0 0.9 0.4 0.9 0.9 0 0.5-0.4 0.9-0.9 0.9zm-74.1-26c5.1 0 9.2 4.1 9.2 9.2v7.7c0 5-4.1 9.1-9.2 9.1h-0.6c-2.9 0-5.6-1.3-7.4-3.5-0.3-0.4-0.6-0.3-0.6 0.3v2.3c0 0.5-0.4 0.9-0.9 0.9-0.5 0-0.9-0.4-0.9-0.9v-36.1c0-0.5 0.4-0.9 0.9-0.9 0.5 0 0.9 0.4 0.9 0.9v13.7c0 0.5 0.3 0.6 0.7 0.2 1.6-1.8 4-2.9 6.6-2.9zm7.4 9.2c0-4.1-3.3-7.4-7.4-7.4h-1.2c-4.1 0-7.4 3.3-7.4 7.4v6.6c0 4.6 3.6 8.4 8 8.4h0.6c4.1 0 7.4-3.3 7.4-7.3zm94.2 15.3c0.3 0.4 0.3 1-0.1 1.3-0.4 0.3-1 0.3-1.3-0.1-0.1-0.2-0.9-1.2-1.6-2.8-0.1-0.3-0.3-0.3-0.4-0.1-1.7 2.4-4.5 3.9-7.8 3.9h-3.3c-3.9 0-7.1-3.1-7.1-7v-2.2c0-3.9 3.2-7.1 7.1-7.1h10.1c0.3 0 0.6-0.2 0.6-0.5v-1.8c0-3.4-2.4-5.9-6.1-6.3-5.1-0.5-8.6 2.2-8.6 2.2-0.4 0.3-1 0.2-1.3-0.2-0.3-0.4-0.3-0.9 0.1-1.2 0.2-0.2 4.1-3.2 10-2.6 4.6 0.5 7.7 3.8 7.7 8.1v10.4c0 3.5 2 6 2 6zm-11.2 0.4c4.1 0 7.4-2.9 7.4-6.5v-5.6c0-0.3-0.3-0.5-0.6-0.5h-10.1c-2.9 0-5.3 2.3-5.3 5.2v2.2c0 2.9 2.4 5.2 5.3 5.2zm29.4-24.9c5 0 9.1 4.1 9.1 9.2v7.7c0 5-4.1 9.1-9.1 9.1h-0.6c-3 0-5.6-1.3-7.4-3.4-0.3-0.5-0.6-0.4-0.6 0.2v2.3c0 0.5-0.4 0.9-0.9 0.9-0.5 0-0.9-0.4-0.9-0.9v-36.1c0-0.5 0.4-0.9 0.9-0.9 0.5 0 0.9 0.4 0.9 0.9v13.7c0 0.5 0.3 0.6 0.7 0.2 1.6-1.8 4-2.9 6.6-2.9zm7.4 9.2c0-4.1-3.3-7.4-7.4-7.4h-1.3c-4 0-7.3 3.3-7.3 7.4v6.6c0 4.7 3.6 8.4 8 8.4h0.6c4.1 0 7.4-3.3 7.4-7.3z"/>
	</g>
</svg>