<svg version="1.2" xmlns="http://www.w3.org/2000/svg" viewBox="0 0 178 43" width="178">
	<title>システム用logo Hibi-Lab [更新済み]-ai-svg</title>
	<style>
		.s0 { fill: white, stroke: white } 
	</style>
	<g id="Layer">
		<path id="Layer" fill-rule="evenodd" class="s0" d="m5 22c0-11 8.9-20 20-20 11 0 20 9 20 20 0 8.1-4.9 15.4-12.5 18.5-0.2 0.1-0.3 0.1-0.5 0-0.2-0.1-0.2-0.3-0.2-0.5v-1.4c0-1.8-1-4-2.1-4.8l-3.7-2.7c-0.5-0.3-1-1.1-1.2-1.7l-0.4-1.9c-0.1-0.3 0.1-0.5 0.4-0.6 0.3-0.1 0.7 0.1 0.7 0.4l0.4 1.9c0.1 0.3 0.3 0.6 0.6 0.9 0.1 0.1 0.3 0.1 0.4-0.1l0.7-2.2c0.1-0.3 0-0.7-0.2-0.9l-2.6-2c-0.3-0.2-0.7-0.5-1.1-0.5l-1.4-0.3q-0.2 0.1-0.2 0.2c-0.2 0.1-0.3 0.4-0.2 0.7l1.1 4.5c0 0.2-0.1 0.5-0.4 0.6-0.3 0-0.5-0.2-0.5-0.4l-1.1-4.5q-0.1-0.6 0.1-1.1c0-0.1-0.1-0.2-0.2-0.3l-1.2-0.2c-0.1 0-0.3 0-0.3 0.1q-0.1 0-0.2 0.1c-0.1 0.1-0.2 0.4-0.1 0.7l1 4.5c0.1 0.2-0.1 0.5-0.3 0.6-0.3 0-0.6-0.1-0.6-0.4l-1-4.5q-0.2-0.6 0-1.1c0-0.1 0-0.2-0.1-0.2l-1.2-0.3c-0.2 0-0.3 0-0.4 0q-0.1 0.1-0.1 0.2c-0.2 0.1-0.2 0.4-0.2 0.7l1.1 4.5c0 0.3-0.1 0.5-0.4 0.5-0.3 0.1-0.5 0-0.5-0.3l-1.1-4.4q-0.1-0.7 0-1.2c0.1-0.1 0-0.2 0-0.2l-1.1-0.2c-0.3 0-0.5 0-0.6 0.2-0.1 0.1-0.2 0.3-0.1 0.6l1.8 7.9c0.2 0.8 1 1.9 1.8 2.3l9.5 5c0.7 0.5 1.2 1.4 1.2 2.2v0.4c0 0.3-0.2 0.6-0.5 0.6q-1.2 0.1-2.3 0.1c-11.1 0-20-8.9-20-20zm16.6 0.9c0.2 0 0.4-0.1 0.5-0.3l1.3-2.9c0.1-0.1 0-0.3 0-0.4l-3.4-2.1c-0.6-0.5-1.1-1.2-1-2 0-0.9 0.7-1.8 1.8-2.4 0.1 0 6-3.4 9.4-8.6 0.1-0.1 0-0.3-0.2-0.4-1.6-0.4-3.2-0.7-5-0.7-10.4 0-18.9 8.5-18.9 18.9 0 10.4 8.5 18.9 18.9 18.9q0.7 0 1.4 0c0.2-0.1 0.3-0.2 0.2-0.4 0-0.3-0.3-0.6-0.6-0.8l-9.5-5c-1-0.6-2-1.9-2.3-3.1l-1.9-7.8c-0.1-0.7 0-1.3 0.5-1.7 0.4-0.4 0.9-0.6 1.6-0.5zm7.1 5.3l-0.8 2.5c-0.1 0.2 0 0.5 0.2 0.5l2.3 1.7c1.3 1 2.5 3.4 2.5 6 0 0.2 0.2 0.2 0.4 0.2 6.5-3.2 10.7-9.7 10.7-17 0-8.1-5.1-14.9-12.1-17.6-0.2-0.1-0.4 0-0.6 0.1-0.8 1.3-1.7 2.4-2.7 3.5 0 0.1 0 0.2 0 0.3q0.2 0 0.4 0.2 0.1 0.1 0.2 0.2c0.1 0.1 0.2 0.1 0.3 0 1.1-1.5 2.5-2 3.4-1.5 0.9 0.4 1.5 1.3 1.3 2.8 0 0.1 0.1 0.3 0.3 0.3l0.5 0.2c0.3 0.2 0.4 0.5 0.3 0.7-0.2 0.3-0.4 0.5-0.7 0.3l-0.4-0.1c-0.1-0.1-0.2 0-0.2 0q-0.2 0.5-0.4 1c-1.3 2.9-3.1 3.6-4.3 3-1.2-0.6-1.9-2.3-0.8-4.9 0.1-0.2 0.1-0.4 0.1-0.4 0-0.2 0-0.5-0.2-0.7-0.2-0.2-0.4-0.3-0.6-0.4-0.1 0-0.3 0.1-0.3 0.2-3 2.7-5.9 4.5-6.1 4.5-0.7 0.5-1.2 1-1.2 1.6 0 0.4 0.2 0.7 0.5 0.9l3.3 2.2c0.5 0.3 0.7 1.1 0.5 1.7l-1.3 2.6c0 0.2 0 0.4 0.2 0.4l0.6 0.1c0.5 0.1 1.2 0.5 1.6 0.7l2.5 2.1c0.6 0.5 0.9 1.4 0.6 2.1zm-0.3-6.8c0 0.3-0.3 0.5-0.5 0.5h-1.6c-0.4 0-0.6-0.2-0.6-0.5 0-0.4 0.2-0.6 0.6-0.6h1.6c0.2 0 0.5 0.2 0.5 0.6zm1.3-6.9c0.7 0.4 2-0.4 3-2.4 0.9-2.1 0.6-3.5-0.2-3.8-0.8-0.4-2 0.3-2.9 2.4-0.9 2.1-0.6 3.5 0.1 3.8z"/>
		 <text x="60" y="32" font-weight="bold" font-size="30" fill="white"> 
            Hibi-Lab
        </text> 
	</g>
</svg>