<svg version="1.2" xmlns="http://www.w3.org/2000/svg" viewBox="0 0 223 54" width="150" height="36">
	<title>システム用logo Hibi-Lab [更新済み]-ai</title>
	<style>
		.s0 { fill: #fefefe;stroke: #fefefe;stroke-miterlimit:10;stroke-width: .4 } 
	</style>
	<g id="レイヤー 1">
		<g id="&lt;Group&gt;">
			<path id="&lt;Compound Path&gt;" fill-rule="evenodd" class="s0" d="m3.3 25c0-13.2 10.7-23.9 23.9-23.9 13.1 0 23.9 10.7 23.9 23.9 0 9.7-5.9 18.4-14.9 22.1-0.2 0.1-0.5 0.1-0.6 0-0.2-0.1-0.3-0.4-0.3-0.6v-1.7c0-2.2-1.2-4.8-2.5-5.7l-4.4-3.2c-0.6-0.4-1.2-1.3-1.4-2.1l-0.5-2.2c-0.1-0.4 0.1-0.7 0.5-0.8 0.3-0.1 0.7 0.1 0.8 0.5l0.5 2.2c0.1 0.4 0.3 0.8 0.7 1.2 0.1 0.1 0.4 0.1 0.4-0.2l0.9-2.6c0.1-0.3 0-0.8-0.3-1l-3-2.5c-0.3-0.3-0.9-0.5-1.3-0.6l-1.7-0.3q-0.2 0-0.3 0.2-0.3 0.3-0.2 0.9l1.3 5.3c0 0.3-0.2 0.6-0.5 0.7-0.3 0.1-0.6-0.1-0.7-0.4l-1.2-5.4q-0.2-0.7 0.1-1.3c0-0.1 0-0.3-0.2-0.3l-1.4-0.2c-0.2-0.1-0.4-0.1-0.5 0q-0.1 0-0.1 0.1-0.3 0.3-0.2 0.9l1.2 5.3c0.1 0.3-0.1 0.6-0.4 0.7-0.3 0.1-0.6-0.1-0.7-0.4l-1.2-5.4q-0.2-0.7 0.1-1.3c0-0.1 0-0.3-0.2-0.3l-1.4-0.2c-0.2-0.1-0.4-0.1-0.5 0q-0.1 0-0.2 0.1-0.2 0.3-0.1 0.9l1.2 5.3c0.1 0.3-0.1 0.6-0.4 0.7-0.3 0.1-0.6-0.1-0.7-0.4l-1.2-5.4q-0.2-0.7 0.1-1.3c0-0.1 0-0.3-0.2-0.3l-1.2-0.2q-0.5-0.1-0.8 0.2-0.2 0.2-0.1 0.8l2.2 9.4c0.2 1 1.2 2.2 2.1 2.7l11.3 6.1c0.9 0.4 1.6 1.6 1.6 2.6v0.5c0 0.3-0.3 0.6-0.6 0.6q-1.4 0.2-2.8 0.2c-13.2 0-23.9-10.7-23.9-23.9zm19.8 1c0.2 0 0.5-0.1 0.6-0.3l1.6-3.5c0.1-0.1 0-0.3-0.1-0.4l-3.9-2.6c-0.9-0.6-1.3-1.4-1.3-2.3 0-1.1 0.8-2.1 2.1-2.9 0.1 0 7.2-4.1 11.3-10.3 0.1-0.2 0-0.4-0.2-0.5q-2.9-0.8-6-0.8c-12.5 0-22.6 10.1-22.6 22.6 0 12.5 10.1 22.6 22.6 22.6q0.8 0 1.6-0.1c0.3 0 0.4-0.2 0.4-0.4-0.2-0.4-0.5-0.8-0.8-0.9l-11.4-6.1c-1.2-0.7-2.4-2.3-2.7-3.6l-2.2-9.4c-0.2-0.8 0-1.6 0.4-2 0.5-0.5 1.2-0.7 2-0.6zm8.5 6.3l-1 3c0 0.3 0.1 0.6 0.2 0.7l2.8 2c1.7 1.1 3.1 4 3.1 7.1 0 0.2 0.1 0.3 0.3 0.2 7.8-3.7 12.8-11.6 12.8-20.3 0-9.6-6-17.8-14.4-21.1-0.2 0-0.5 0.1-0.6 0.3-1 1.5-2.1 2.8-3.3 4.1-0.1 0.1-0.1 0.2 0.1 0.3q0.1 0.1 0.3 0.2 0.2 0.2 0.3 0.4c0.1 0.1 0.2 0.1 0.3 0 1.4-2 3-2.4 4.2-1.9 1 0.5 1.7 1.6 1.5 3.4 0 0.1 0.1 0.3 0.3 0.3l0.6 0.4c0.4 0.1 0.5 0.5 0.4 0.8-0.2 0.3-0.6 0.4-0.9 0.3l-0.4-0.2c-0.1-0.1-0.3 0-0.3 0.1q-0.2 0.6-0.5 1.2c-1.5 3.4-3.6 4.2-5.1 3.5-1.4-0.6-2.2-2.7-0.9-5.9 0-0.1 0.1-0.3 0.1-0.5 0-0.2-0.1-0.5-0.3-0.8-0.2-0.2-0.4-0.3-0.6-0.4-0.2 0-0.4 0.1-0.5 0.2-3.5 3.3-7 5.3-7.2 5.5-0.9 0.5-1.5 1.1-1.5 1.8 0 0.5 0.4 0.9 0.7 1.1l3.9 2.6c0.7 0.4 0.9 1.4 0.6 2.1l-1.5 3.1c-0.1 0.2 0 0.4 0.2 0.5l0.7 0.1c0.6 0.1 1.4 0.5 1.9 0.9l3 2.4c0.7 0.6 1 1.7 0.7 2.5zm-0.3-8.1c0 0.3-0.3 0.6-0.7 0.6h-1.9c-0.4 0-0.7-0.3-0.7-0.6 0-0.4 0.3-0.7 0.7-0.7h1.9c0.4 0 0.7 0.3 0.7 0.7zm1.5-8.2c0.9 0.4 2.4-0.5 3.5-3 1.1-2.4 0.8-4.1-0.1-4.5-0.9-0.4-2.4 0.5-3.5 2.9-1.1 2.5-0.8 4.2 0.1 4.6z"/>
			<path id="&lt;Compound Path&gt;" fill-rule="evenodd" class="s0" d="m95.9 10.7v4.3c0 0.5-0.3 0.8-0.7 0.8-0.4 0-0.8-0.3-0.8-0.8v-4.3c0-0.4 0.4-0.8 0.8-0.8 0.4 0 0.7 0.4 0.7 0.8zm0 9.3v20.6c0 0.4-0.3 0.7-0.7 0.7-0.4 0-0.8-0.3-0.8-0.7v-20.6c0-0.4 0.4-0.7 0.8-0.7 0.4 0 0.7 0.3 0.7 0.7zm34.4-9.3v4.3c0 0.5-0.3 0.8-0.7 0.8-0.5 0-0.8-0.3-0.8-0.8v-4.3c0-0.4 0.3-0.8 0.8-0.8 0.4 0 0.7 0.4 0.7 0.8zm0 9.3v20.6c0 0.4-0.3 0.7-0.7 0.7-0.5 0-0.8-0.3-0.8-0.7v-20.6c0-0.4 0.3-0.7 0.8-0.7 0.4 0 0.7 0.3 0.7 0.7zm-45.2 20.6c0 0.4-0.3 0.7-0.7 0.7-0.4 0-0.8-0.3-0.8-0.7v-13.8c0-0.2-0.1-0.4-0.4-0.4h-17.4c-0.2 0-0.4 0.2-0.4 0.4v13.8c0 0.4-0.4 0.7-0.8 0.7-0.4 0-0.7-0.3-0.7-0.7v-29.9c0-0.4 0.3-0.8 0.7-0.8 0.4 0 0.8 0.4 0.8 0.8v13.8c0 0.2 0.2 0.4 0.4 0.4h17.4c0.3 0 0.4-0.2 0.4-0.4v-13.8c0-0.4 0.4-0.8 0.8-0.8 0.4 0 0.7 0.4 0.7 0.8zm64.8-9h-11.4c-0.5 0-0.8-0.3-0.8-0.7 0-0.5 0.3-0.8 0.8-0.8h11.4c0.4 0 0.7 0.3 0.7 0.8 0 0.4-0.3 0.7-0.7 0.7zm25.4 9.7h-16.5c-0.4 0-0.8-0.3-0.8-0.7v-29.9c0-0.4 0.4-0.8 0.8-0.8 0.4 0 0.7 0.4 0.7 0.8v28.9c0 0.1 0.1 0.2 0.3 0.2h15.5c0.4 0 0.7 0.4 0.7 0.8 0 0.4-0.3 0.7-0.7 0.7zm-61.4-21.5c4.1 0 7.5 3.4 7.5 7.6v6.4c0 4.1-3.4 7.5-7.5 7.5h-0.6c-1.7 0-3.3-0.6-4.7-1.5q0.3 0 0.6 0h8.3c1.3 0 2.4-1.1 2.4-2.4v-13.6c0-1.4-1.1-2.5-2.4-2.5h-8.3c-1.4 0-2.5 1.1-2.5 2.5v13.6q0 0.4 0.2 0.8-0.2 0.1-0.2 0.4v2c0 0.4-0.3 0.7-0.7 0.7-0.4 0-0.8-0.3-0.8-0.7v-29.9c0-0.4 0.4-0.8 0.8-0.8 0.4 0 0.7 0.4 0.7 0.8v11.3c0 0.5 0.3 0.5 0.6 0.2 1.4-1.5 3.3-2.4 5.5-2.4zm-5.2 20c-0.8-0.2-1.5-0.8-1.8-1.6q0.2 0 0.4 0.3 0.6 0.7 1.4 1.3zm89.4 0.3c0.3 0.3 0.2 0.8-0.1 1.1-0.3 0.2-0.8 0.2-1.1-0.1q0-0.1 0-0.1c-0.1-0.1-0.7-0.9-1.3-2.3-0.1-0.2-0.2-0.2-0.4 0-1.3 1.9-3.7 3.2-6.4 3.2h-2.7c-3.3 0-5.9-2.6-5.9-5.8v-1.8c0-3.2 2.6-5.9 5.9-5.9h8.4c0.2 0 0.4-0.2 0.4-0.4v-1.5c0-2.8-2-4.9-5-5.2-4.2-0.5-7.1 1.7-7.2 1.8-0.3 0.2-0.8 0.2-1-0.2-0.3-0.3-0.2-0.8 0.1-1 0.1-0.1 3.4-2.6 8.3-2.1 3.8 0.4 6.3 3.1 6.3 6.7v8.6c0 2.9 1.7 5 1.7 5zm-9.3 0.3c3.4 0 6.1-2.4 6.1-5.4v-4.6c0-0.3-0.2-0.5-0.4-0.5h-8.4c-2.4 0-4.4 2-4.4 4.4v1.8c0 2.4 2 4.3 4.4 4.3zm24.3-20.6c4.2 0 7.6 3.4 7.6 7.6v6.4c0 4.1-3.4 7.5-7.6 7.5h-0.5c-1.7 0-3.4-0.6-4.7-1.5q0.3 0 0.6 0h8.3c1.3 0 2.4-1.1 2.4-2.4v-13.6c0-1.4-1.1-2.5-2.4-2.5h-8.3c-1.4 0-2.5 1.1-2.5 2.5v13.6q0 0.4 0.2 0.8-0.2 0.1-0.2 0.4v2c0 0.4-0.3 0.7-0.7 0.7-0.5 0-0.8-0.3-0.8-0.7v-29.9c0-0.4 0.3-0.8 0.8-0.8 0.4 0 0.7 0.4 0.7 0.8v11.3c0 0.5 0.2 0.5 0.6 0.2 1.3-1.5 3.3-2.4 5.5-2.4zm-6.6 18.7q-0.3-0.3-0.4-0.3c0.3 0.8 0.9 1.4 1.7 1.6q-0.7-0.6-1.3-1.3z"/>
		</g>
	</g>
</svg>